<?xml version="1.0" encoding="UTF-8" standalone="no"?>
<svg
   xmlns:dc="http://purl.org/dc/elements/1.1/"
   xmlns:cc="http://creativecommons.org/ns#"
   xmlns:rdf="http://www.w3.org/1999/02/22-rdf-syntax-ns#"
   xmlns:svg="http://www.w3.org/2000/svg"
   xmlns="http://www.w3.org/2000/svg"
   class="style-svg replaced-svg"
   xml:space="preserve"
   enable-background="new 0 0 63.788 56.041"
   viewBox="0 0 256.00001 256"
   height="256"
   width="256"
   y="0px"
   x="0px"
   id="Layer_2"
   version="1.1"><metadata
   id="metadata101"><rdf:RDF><cc:Work
       rdf:about=""><dc:format>image/svg+xml</dc:format><dc:type
         rdf:resource="http://purl.org/dc/dcmitype/StillImage" /><dc:title></dc:title></cc:Work></rdf:RDF></metadata><defs
   id="defs99" />
<g
   transform="matrix(4.0132763,0,0,4.0132763,5.6824042e-4,31.091003)"
   id="g94">
	<path
   id="path2"
   d="m 19.775,55.502 c 0,0 0.586,0.261 1.474,0.423 0.446,0.072 0.956,0.151 1.511,0.1 0.558,-0.06 1.145,-0.193 1.71,-0.443 1.13,-0.506 1.61,-1.194 1.845,-1.79 0.229,-0.583 0.2,-1.013 0.2,-1.013 0,0 -0.134,-0.025 -0.359,-0.079 -0.227,-0.048 -0.55,-0.103 -0.939,-0.124 -0.784,-0.035 -1.831,0.058 -2.937,0.429 -1.118,0.405 -1.771,1.019 -2.116,1.542 -0.347,0.522 -0.389,0.955 -0.389,0.955 z"
   fill="#99814A" />
	<path
   id="path4"
   d="m 23.499,46.446 c 0,0 0.427,0.109 0.956,0.467 0.268,0.172 0.553,0.438 0.854,0.728 0.303,0.281 0.603,0.644 0.873,1.108 0.542,0.924 0.68,1.808 0.661,2.408 -0.018,0.615 -0.204,1.012 -0.204,1.012 0,0 -0.135,-0.006 -0.352,-0.078 -0.217,-0.064 -0.521,-0.173 -0.863,-0.34 -0.684,-0.324 -1.521,-0.889 -2.012,-1.922 -0.5,-0.998 -0.452,-1.832 -0.307,-2.43 0.148,-0.595 0.394,-0.953 0.394,-0.953 z"
   fill="#99814A" />
	<path
   id="path6"
   d="m 14.252,52.569 c 0,0 0.523,0.369 1.363,0.699 0.421,0.16 0.909,0.33 1.46,0.396 0.559,0.051 1.161,0.034 1.764,-0.1 1.207,-0.272 1.814,-0.857 2.162,-1.395 0.339,-0.526 0.396,-0.954 0.396,-0.954 0,0 -0.125,-0.054 -0.337,-0.146 -0.213,-0.092 -0.519,-0.208 -0.897,-0.306 -0.378,-0.098 -0.829,-0.177 -1.335,-0.2 -0.506,-0.023 -1.035,-0.055 -1.627,0.043 -1.176,0.181 -1.937,0.654 -2.377,1.102 -0.447,0.445 -0.572,0.861 -0.572,0.861 z"
   fill="#99814A" />
	<path
   id="path8"
   d="m 19.675,44.416 c 0,0 0.399,0.191 0.849,0.645 0.229,0.222 0.461,0.532 0.695,0.882 0.242,0.336 0.466,0.75 0.639,1.258 0.35,1.014 0.312,1.904 0.176,2.49 -0.139,0.6 -0.399,0.951 -0.399,0.951 0,0 -0.132,-0.03 -0.33,-0.143 -0.201,-0.107 -0.478,-0.272 -0.78,-0.503 -0.302,-0.229 -0.629,-0.525 -0.924,-0.889 -0.293,-0.366 -0.52,-0.862 -0.673,-1.392 -0.296,-1.075 -0.086,-1.885 0.172,-2.441 0.263,-0.554 0.575,-0.858 0.575,-0.858 z"
   fill="#99814A" />
	<path
   id="path10"
   d="m 9.383,48.597 c 0,0 0.442,0.461 1.203,0.946 0.38,0.241 0.837,0.489 1.35,0.678 0.539,0.157 1.133,0.257 1.751,0.243 1.237,-0.033 1.954,-0.495 2.391,-0.939 0.436,-0.45 0.575,-0.857 0.575,-0.857 0,0 -0.414,-0.355 -1.119,-0.689 -0.353,-0.17 -0.78,-0.334 -1.273,-0.454 -0.477,-0.141 -1.002,-0.259 -1.6,-0.28 -1.192,-0.051 -2.031,0.268 -2.551,0.62 -0.523,0.348 -0.727,0.732 -0.727,0.732 z"
   fill="#99814A" />
	<path
   id="path12"
   d="m 16.294,41.659 c 0,0 0.355,0.265 0.712,0.795 0.179,0.266 0.359,0.6 0.506,1.007 0.173,0.376 0.313,0.823 0.385,1.354 0.146,1.062 -0.06,1.92 -0.318,2.48 C 17.325,47.856 17,48.151 17,48.151 c 0,0 -0.452,-0.289 -0.958,-0.855 -0.252,-0.283 -0.516,-0.636 -0.735,-1.049 -0.201,-0.434 -0.339,-0.949 -0.384,-1.502 -0.084,-1.108 0.279,-1.859 0.641,-2.355 0.365,-0.494 0.73,-0.731 0.73,-0.731 z"
   fill="#99814A" />
	<path
   id="path14"
   d="m 5.427,43.806 c 0,0 0.345,0.539 0.999,1.162 0.327,0.31 0.729,0.639 1.197,0.924 0.487,0.267 1.061,0.471 1.668,0.577 1.221,0.206 2.017,-0.113 2.527,-0.46 0.508,-0.351 0.73,-0.73 0.73,-0.73 0,0 -0.338,-0.429 -0.965,-0.893 C 11.269,44.153 10.879,43.91 10.418,43.698 9.988,43.459 9.485,43.25 8.905,43.111 7.744,42.833 6.854,42.986 6.281,43.228 5.71,43.464 5.427,43.806 5.427,43.806 Z"
   fill="#99814A" />
	<path
   id="path16"
   d="m 13.548,38.335 c 0,0 0.298,0.327 0.546,0.915 0.125,0.294 0.239,0.656 0.304,1.083 0.087,0.411 0.147,0.871 0.113,1.406 -0.061,1.07 -0.424,1.867 -0.79,2.373 -0.364,0.508 -0.732,0.727 -0.732,0.727 0,0 -0.389,-0.37 -0.776,-1.023 -0.193,-0.326 -0.386,-0.722 -0.521,-1.169 -0.103,-0.474 -0.149,-0.998 -0.084,-1.55 0.131,-1.104 0.627,-1.768 1.083,-2.188 0.461,-0.418 0.857,-0.574 0.857,-0.574 z"
   fill="#99814A" />
	<path
   id="path18"
   d="m 2.461,38.3 c 0,0 0.044,0.154 0.174,0.393 0.125,0.241 0.315,0.575 0.577,0.943 0.261,0.367 0.594,0.77 0.998,1.139 0.411,0.367 0.947,0.672 1.521,0.895 1.161,0.439 2.005,0.279 2.573,0.037 0.566,-0.244 0.858,-0.574 0.858,-0.574 0,0 -0.25,-0.484 -0.778,-1.061 C 8.123,39.781 7.775,39.475 7.379,39.168 7.003,38.852 6.549,38.549 6.005,38.3 4.922,37.799 4.008,37.78 3.412,37.9 2.805,38.019 2.461,38.3 2.461,38.3 Z"
   fill="#99814A" />
	<path
   id="path20"
   d="m 11.495,34.521 c 0,0 0.043,0.101 0.123,0.271 0.074,0.172 0.165,0.422 0.23,0.733 0.066,0.312 0.108,0.688 0.09,1.118 -0.011,0.428 -0.027,0.883 -0.167,1.402 -0.266,1.035 -0.775,1.746 -1.232,2.17 -0.455,0.428 -0.859,0.571 -0.859,0.571 0,0 -0.311,-0.438 -0.567,-1.152 C 8.989,39.276 8.863,38.858 8.834,38.385 8.824,37.901 8.88,37.378 9.05,36.85 9.395,35.794 10,35.246 10.543,34.917 c 0.533,-0.319 0.952,-0.396 0.952,-0.396 z"
   fill="#99814A" />
	<path
   id="path22"
   d="m 0.628,32.314 c 0,0 0.014,0.159 0.094,0.419 0.075,0.262 0.197,0.627 0.381,1.039 0.185,0.412 0.432,0.871 0.755,1.313 0.324,0.442 0.797,0.845 1.315,1.177 1.054,0.658 1.914,0.666 2.519,0.54 0.604,-0.13 0.954,-0.396 0.954,-0.396 0,0 -0.151,-0.523 -0.558,-1.191 C 5.89,34.878 5.602,34.512 5.281,34.131 4.974,33.746 4.589,33.36 4.104,33.01 3.139,32.306 2.248,32.108 1.638,32.108 1.021,32.106 0.628,32.314 0.628,32.314 Z"
   fill="#99814A" />
	<path
   id="path24"
   d="m 10.228,30.386 c 0,0 0.024,0.107 0.068,0.289 0.039,0.184 0.079,0.445 0.082,0.764 0.004,0.318 -0.029,0.695 -0.131,1.113 -0.102,0.42 -0.2,0.858 -0.44,1.342 -0.461,0.961 -1.1,1.559 -1.631,1.885 -0.53,0.33 -0.955,0.393 -0.955,0.393 0,0 -0.22,-0.49 -0.333,-1.241 C 6.838,34.555 6.79,34.123 6.86,33.651 6.945,33.175 7.103,32.674 7.372,32.19 7.917,31.222 8.62,30.803 9.214,30.588 c 0.588,-0.21 1.014,-0.202 1.014,-0.202 z"
   fill="#99814A" />
	<path
   id="path26"
   d="m 0,26.062 c 0,0 -0.012,0.639 0.185,1.519 0.098,0.438 0.249,0.937 0.478,1.433 0.24,0.494 0.617,0.983 1.061,1.41 0.903,0.854 1.744,1.031 2.362,1.027 0.617,-0.008 1.013,-0.199 1.013,-0.199 0,0 -0.044,-0.544 -0.311,-1.279 C 4.659,29.605 4.456,29.188 4.207,28.752 3.984,28.314 3.683,27.86 3.278,27.422 2.468,26.544 1.65,26.176 1.032,26.058 0.415,25.935 0,26.062 0,26.062 Z"
   fill="#99814A" />
	<path
   id="path28"
   d="m 9.792,26.044 c 0,0 0.066,0.438 -0.054,1.065 -0.061,0.315 -0.167,0.679 -0.352,1.071 -0.173,0.391 -0.363,0.803 -0.692,1.229 -0.643,0.853 -1.387,1.312 -1.972,1.527 -0.585,0.219 -1.013,0.195 -1.013,0.195 0,0 -0.119,-0.523 -0.081,-1.281 0.023,-0.379 0.069,-0.812 0.221,-1.261 0.179,-0.45 0.433,-0.911 0.794,-1.334 0.723,-0.843 1.509,-1.118 2.116,-1.212 0.607,-0.091 1.033,0.001 1.033,0.001 z"
   fill="#99814A" />
	<path
   id="path30"
   d="m 0.598,19.879 c 0,0 -0.139,0.626 -0.122,1.528 0.013,0.45 0.048,0.967 0.192,1.499 0.17,0.534 0.418,1.083 0.775,1.587 0.715,1.008 1.503,1.346 2.109,1.461 0.606,0.111 1.032,0 1.032,0 0,0 0.066,-0.543 -0.048,-1.314 C 4.479,24.253 4.377,23.807 4.202,23.33 4.037,22.854 3.858,22.354 3.541,21.845 2.923,20.829 2.193,20.31 1.611,20.074 1.03,19.835 0.598,19.879 0.598,19.879 Z"
   fill="#99814A" />
	<path
   id="path32"
   d="m 10.209,21.751 c 0,0 -0.023,0.441 -0.269,1.031 -0.119,0.297 -0.311,0.63 -0.552,0.98 -0.215,0.354 -0.509,0.72 -0.91,1.076 -0.802,0.714 -1.623,1.021 -2.239,1.119 -0.617,0.102 -1.032,-0.004 -1.032,-0.004 0,0 -0.011,-0.536 0.179,-1.272 0.095,-0.368 0.24,-0.783 0.46,-1.194 0.232,-0.411 0.599,-0.812 1.03,-1.156 0.878,-0.688 1.706,-0.805 2.32,-0.779 0.614,0.027 1.013,0.199 1.013,0.199 z"
   fill="#99814A" />
	<path
   id="path34"
   d="m 2.395,13.885 c 0,0 -0.261,0.586 -0.422,1.474 -0.073,0.446 -0.152,0.956 -0.101,1.512 0.06,0.559 0.194,1.146 0.443,1.711 0.506,1.13 1.195,1.609 1.791,1.845 0.583,0.229 1.013,0.2 1.013,0.2 0,0 0.025,-0.134 0.079,-0.359 C 5.246,20.041 5.3,19.718 5.322,19.329 5.358,18.546 5.265,17.498 4.894,16.392 4.489,15.274 3.875,14.621 3.352,14.276 2.828,13.927 2.395,13.885 2.395,13.885 Z"
   fill="#99814A" />
	<path
   id="path36"
   d="m 11.451,17.608 c 0,0 -0.11,0.428 -0.467,0.956 -0.171,0.269 -0.437,0.554 -0.728,0.854 C 9.975,19.721 9.612,20.021 9.148,20.29 8.224,20.833 7.34,20.97 6.74,20.952 6.125,20.934 5.728,20.748 5.728,20.748 c 0,0 0.005,-0.135 0.077,-0.352 0.065,-0.218 0.173,-0.521 0.34,-0.862 0.325,-0.685 0.889,-1.521 1.922,-2.014 0.998,-0.5 1.832,-0.451 2.429,-0.307 0.597,0.149 0.955,0.395 0.955,0.395 z"
   fill="#99814A" />
	<path
   id="path38"
   d="m 44.012,55.502 c 0,0 -0.586,0.261 -1.475,0.423 -0.445,0.072 -0.955,0.151 -1.512,0.1 -0.559,-0.06 -1.145,-0.193 -1.711,-0.443 -1.129,-0.506 -1.609,-1.194 -1.844,-1.79 -0.23,-0.583 -0.201,-1.013 -0.201,-1.013 0,0 0.135,-0.025 0.359,-0.079 0.227,-0.048 0.551,-0.103 0.939,-0.124 0.783,-0.035 1.832,0.058 2.938,0.429 1.117,0.405 1.77,1.019 2.115,1.542 0.349,0.522 0.392,0.955 0.392,0.955 z"
   fill="#99814A" />
	<path
   id="path40"
   d="m 40.288,46.446 c 0,0 -0.428,0.109 -0.955,0.467 -0.27,0.172 -0.555,0.438 -0.854,0.728 -0.303,0.281 -0.604,0.644 -0.873,1.108 -0.543,0.924 -0.68,1.808 -0.662,2.408 0.018,0.615 0.205,1.012 0.205,1.012 0,0 0.135,-0.006 0.352,-0.078 0.217,-0.064 0.521,-0.173 0.863,-0.34 0.684,-0.324 1.52,-0.889 2.012,-1.922 0.5,-0.998 0.451,-1.832 0.307,-2.43 -0.149,-0.595 -0.395,-0.953 -0.395,-0.953 z"
   fill="#99814A" />
	<path
   id="path42"
   d="m 49.536,52.569 c 0,0 -0.523,0.369 -1.363,0.699 -0.422,0.16 -0.91,0.33 -1.461,0.396 -0.559,0.051 -1.16,0.034 -1.764,-0.1 -1.207,-0.272 -1.814,-0.857 -2.162,-1.395 -0.338,-0.526 -0.395,-0.954 -0.395,-0.954 0,0 0.125,-0.054 0.338,-0.146 0.213,-0.092 0.518,-0.208 0.896,-0.306 0.378,-0.098 0.828,-0.177 1.336,-0.2 0.506,-0.023 1.035,-0.055 1.627,0.043 1.176,0.181 1.936,0.654 2.377,1.102 0.444,0.445 0.571,0.861 0.571,0.861 z"
   fill="#99814A" />
	<path
   id="path44"
   d="m 44.112,44.416 c 0,0 -0.398,0.191 -0.85,0.645 -0.229,0.222 -0.461,0.532 -0.693,0.882 -0.242,0.336 -0.467,0.75 -0.641,1.258 -0.35,1.014 -0.312,1.904 -0.176,2.49 0.139,0.6 0.398,0.951 0.398,0.951 0,0 0.133,-0.03 0.33,-0.143 0.201,-0.107 0.479,-0.272 0.779,-0.503 0.303,-0.229 0.631,-0.525 0.924,-0.889 0.293,-0.366 0.52,-0.862 0.674,-1.392 0.297,-1.075 0.086,-1.885 -0.172,-2.441 -0.261,-0.554 -0.573,-0.858 -0.573,-0.858 z"
   fill="#99814A" />
	<path
   id="path46"
   d="m 54.405,48.597 c 0,0 -0.443,0.461 -1.203,0.946 -0.381,0.241 -0.838,0.489 -1.35,0.678 -0.539,0.157 -1.135,0.257 -1.752,0.243 -1.238,-0.033 -1.953,-0.495 -2.391,-0.939 -0.436,-0.45 -0.574,-0.857 -0.574,-0.857 0,0 0.414,-0.355 1.119,-0.689 0.352,-0.17 0.779,-0.334 1.273,-0.454 0.477,-0.141 1.002,-0.259 1.6,-0.28 1.191,-0.051 2.031,0.268 2.551,0.62 0.522,0.348 0.727,0.732 0.727,0.732 z"
   fill="#99814A" />
	<path
   id="path48"
   d="m 47.493,41.659 c 0,0 -0.355,0.265 -0.711,0.795 -0.18,0.266 -0.359,0.6 -0.506,1.007 -0.174,0.376 -0.314,0.823 -0.385,1.354 -0.146,1.062 0.059,1.92 0.316,2.48 0.254,0.561 0.58,0.855 0.58,0.855 0,0 0.451,-0.289 0.957,-0.855 0.252,-0.283 0.518,-0.636 0.736,-1.049 0.201,-0.434 0.338,-0.949 0.383,-1.502 0.084,-1.108 -0.279,-1.859 -0.641,-2.355 -0.364,-0.493 -0.729,-0.73 -0.729,-0.73 z"
   fill="#99814A" />
	<path
   id="path50"
   d="m 58.36,43.806 c 0,0 -0.346,0.539 -1,1.162 -0.326,0.31 -0.729,0.639 -1.195,0.924 -0.488,0.267 -1.061,0.471 -1.67,0.577 -1.221,0.206 -2.016,-0.113 -2.525,-0.46 -0.508,-0.351 -0.73,-0.73 -0.73,-0.73 0,0 0.338,-0.429 0.965,-0.893 0.314,-0.233 0.703,-0.476 1.166,-0.688 0.43,-0.239 0.932,-0.448 1.512,-0.587 1.162,-0.278 2.051,-0.125 2.623,0.117 0.571,0.236 0.854,0.578 0.854,0.578 z"
   fill="#99814A" />
	<path
   id="path52"
   d="m 50.239,38.335 c 0,0 -0.297,0.327 -0.545,0.915 -0.125,0.294 -0.24,0.656 -0.305,1.083 -0.088,0.411 -0.146,0.871 -0.113,1.406 0.061,1.07 0.424,1.867 0.789,2.373 0.365,0.508 0.732,0.727 0.732,0.727 0,0 0.389,-0.37 0.777,-1.023 0.193,-0.326 0.385,-0.722 0.52,-1.169 0.104,-0.474 0.15,-0.998 0.086,-1.55 -0.131,-1.104 -0.627,-1.768 -1.084,-2.188 -0.461,-0.418 -0.857,-0.574 -0.857,-0.574 z"
   fill="#99814A" />
	<path
   id="path54"
   d="m 61.327,38.3 c 0,0 -0.045,0.154 -0.174,0.393 -0.125,0.241 -0.316,0.575 -0.578,0.943 -0.262,0.367 -0.594,0.77 -0.998,1.139 -0.41,0.367 -0.947,0.672 -1.52,0.895 -1.162,0.439 -2.006,0.279 -2.574,0.037 -0.566,-0.244 -0.857,-0.574 -0.857,-0.574 0,0 0.25,-0.484 0.777,-1.061 0.262,-0.291 0.609,-0.597 1.006,-0.904 0.375,-0.316 0.828,-0.619 1.373,-0.868 1.084,-0.501 1.996,-0.52 2.592,-0.4 0.609,0.119 0.953,0.4 0.953,0.4 z"
   fill="#99814A" />
	<path
   id="path56"
   d="m 52.292,34.521 c 0,0 -0.043,0.101 -0.121,0.271 -0.074,0.172 -0.166,0.422 -0.23,0.733 -0.066,0.312 -0.109,0.688 -0.09,1.118 0.01,0.428 0.025,0.883 0.166,1.402 0.266,1.035 0.775,1.746 1.232,2.17 0.455,0.428 0.859,0.571 0.859,0.571 0,0 0.311,-0.438 0.566,-1.152 0.123,-0.358 0.25,-0.776 0.279,-1.249 0.01,-0.484 -0.045,-1.007 -0.215,-1.535 -0.346,-1.056 -0.951,-1.604 -1.494,-1.933 -0.533,-0.319 -0.952,-0.396 -0.952,-0.396 z"
   fill="#99814A" />
	<path
   id="path58"
   d="m 63.159,32.314 c 0,0 -0.014,0.159 -0.094,0.419 -0.074,0.262 -0.197,0.627 -0.381,1.039 -0.184,0.412 -0.432,0.871 -0.756,1.313 -0.324,0.442 -0.797,0.845 -1.314,1.177 -1.055,0.658 -1.914,0.666 -2.52,0.54 -0.604,-0.13 -0.953,-0.396 -0.953,-0.396 0,0 0.15,-0.523 0.557,-1.191 0.199,-0.337 0.486,-0.703 0.807,-1.084 0.307,-0.385 0.693,-0.771 1.178,-1.121 0.965,-0.704 1.855,-0.902 2.467,-0.902 0.616,-0.002 1.009,0.206 1.009,0.206 z"
   fill="#99814A" />
	<path
   id="path60"
   d="m 53.559,30.386 c 0,0 -0.023,0.107 -0.068,0.289 -0.039,0.184 -0.078,0.445 -0.082,0.764 -0.004,0.319 0.029,0.695 0.131,1.113 0.102,0.42 0.201,0.858 0.441,1.342 0.461,0.961 1.1,1.559 1.631,1.885 0.529,0.33 0.953,0.393 0.953,0.393 0,0 0.221,-0.49 0.334,-1.241 0.049,-0.376 0.098,-0.808 0.027,-1.28 -0.086,-0.476 -0.242,-0.977 -0.512,-1.461 -0.545,-0.968 -1.248,-1.387 -1.844,-1.602 -0.585,-0.21 -1.011,-0.202 -1.011,-0.202 z"
   fill="#99814A" />
	<path
   id="path62"
   d="m 63.788,26.062 c 0,0 0.012,0.639 -0.186,1.519 -0.098,0.438 -0.248,0.937 -0.479,1.433 -0.238,0.494 -0.615,0.983 -1.061,1.41 -0.902,0.854 -1.744,1.031 -2.361,1.027 -0.617,-0.008 -1.014,-0.199 -1.014,-0.199 0,0 0.045,-0.544 0.311,-1.279 0.129,-0.368 0.332,-0.785 0.582,-1.221 0.223,-0.438 0.523,-0.892 0.928,-1.33 0.811,-0.878 1.629,-1.246 2.246,-1.364 0.618,-0.123 1.034,0.004 1.034,0.004 z"
   fill="#99814A" />
	<path
   id="path64"
   d="m 53.995,26.044 c 0,0 -0.066,0.438 0.055,1.065 0.061,0.315 0.168,0.679 0.352,1.071 0.172,0.391 0.363,0.803 0.691,1.229 0.643,0.853 1.387,1.312 1.973,1.527 0.584,0.219 1.014,0.195 1.014,0.195 0,0 0.117,-0.523 0.08,-1.281 -0.023,-0.379 -0.068,-0.812 -0.221,-1.261 -0.18,-0.45 -0.434,-0.911 -0.795,-1.334 -0.723,-0.843 -1.51,-1.118 -2.115,-1.212 -0.609,-0.091 -1.034,0.001 -1.034,0.001 z"
   fill="#99814A" />
	<path
   id="path66"
   d="m 63.19,19.879 c 0,0 0.139,0.626 0.121,1.528 -0.012,0.45 -0.047,0.967 -0.191,1.499 -0.17,0.534 -0.418,1.083 -0.775,1.587 -0.715,1.008 -1.504,1.346 -2.109,1.461 -0.607,0.111 -1.033,0 -1.033,0 0,0 -0.066,-0.543 0.049,-1.314 0.057,-0.387 0.158,-0.833 0.334,-1.31 0.164,-0.476 0.344,-0.976 0.66,-1.485 0.619,-1.016 1.35,-1.535 1.932,-1.771 0.578,-0.239 1.012,-0.195 1.012,-0.195 z"
   fill="#99814A" />
	<path
   id="path68"
   d="m 53.579,21.751 c 0,0 0.023,0.441 0.268,1.031 0.119,0.297 0.311,0.63 0.553,0.98 0.215,0.354 0.508,0.72 0.91,1.076 0.801,0.714 1.621,1.021 2.238,1.119 0.617,0.102 1.033,-0.004 1.033,-0.004 0,0 0.01,-0.536 -0.18,-1.272 -0.094,-0.368 -0.24,-0.783 -0.461,-1.194 -0.23,-0.411 -0.598,-0.812 -1.029,-1.156 -0.879,-0.688 -1.705,-0.805 -2.32,-0.779 -0.614,0.027 -1.012,0.199 -1.012,0.199 z"
   fill="#99814A" />
	<path
   id="path70"
   d="m 61.393,13.885 c 0,0 0.26,0.586 0.422,1.474 0.072,0.446 0.152,0.956 0.102,1.512 -0.061,0.559 -0.195,1.146 -0.443,1.711 -0.506,1.13 -1.195,1.609 -1.791,1.845 -0.584,0.229 -1.014,0.2 -1.014,0.2 0,0 -0.025,-0.134 -0.078,-0.359 -0.049,-0.227 -0.104,-0.55 -0.125,-0.939 -0.035,-0.783 0.059,-1.831 0.43,-2.937 0.404,-1.118 1.018,-1.771 1.541,-2.116 0.522,-0.349 0.956,-0.391 0.956,-0.391 z"
   fill="#99814A" />
	<path
   id="path72"
   d="m 52.336,17.608 c 0,0 0.109,0.428 0.467,0.956 0.172,0.269 0.438,0.554 0.729,0.854 0.281,0.303 0.643,0.603 1.107,0.872 0.924,0.543 1.809,0.68 2.408,0.662 0.615,-0.018 1.012,-0.204 1.012,-0.204 0,0 -0.006,-0.135 -0.078,-0.352 -0.064,-0.218 -0.172,-0.521 -0.34,-0.862 -0.324,-0.685 -0.889,-1.521 -1.922,-2.014 -0.998,-0.5 -1.832,-0.451 -2.43,-0.307 -0.595,0.149 -0.953,0.395 -0.953,0.395 z"
   fill="#99814A" />
	<path
   id="path74"
   d="M 38.665,12.808 H 24.433 c -0.787,0 -1.424,-0.635 -1.424,-1.423 0,-0.786 0.637,-1.421 1.424,-1.421 h 14.231 c 0.787,0 1.424,0.635 1.424,1.421 0,0.788 -0.636,1.423 -1.423,1.423 z"
   fill="#99814A" />
	<path
   id="path76"
   d="M 38.665,18.502 H 24.433 c -0.787,0 -1.424,-0.637 -1.424,-1.423 0,-0.787 0.637,-1.425 1.424,-1.425 h 14.231 c 0.787,0 1.424,0.638 1.424,1.425 0,0.786 -0.636,1.423 -1.423,1.423 z"
   fill="#99814A" />
	<path
   id="path78"
   d="M 38.665,24.195 H 24.433 c -0.787,0 -1.424,-0.636 -1.424,-1.424 0,-0.789 0.637,-1.423 1.424,-1.423 h 14.231 c 0.787,0 1.424,0.634 1.424,1.423 0,0.789 -0.636,1.424 -1.423,1.424 z"
   fill="#99814A" />
	<g
   id="g84"
   display="none">
		<polygon
   id="polygon80"
   points="40.678,17.65 40.678,30.188 36.014,27.077 31.351,30.188 31.351,17.65 "
   fill="#99814A"
   display="inline" />
		<path
   id="path82"
   d="M 40.178,18.15 V 29.253 L 36.014,26.477 31.85,29.253 V 18.15 h 8.328 m 1,-1 h -1 -8.328 -1 v 1 11.103 1.869 l 1.555,-1.037 3.609,-2.406 3.609,2.406 1.555,1.036 V 29.253 18.15 Z"
   fill="#FFFFFF"
   display="inline" />
	</g>
	<g
   id="g90"
   display="none">
		<path
   id="path86"
   d="m 18.472,-4.057 c 10e-4,-0.262 0.093,-6.44 6.439,-6.44 h 13.88 c 0.262,10e-4 6.439,0.093 6.439,6.44 V 17.65 H 22.135 c -1.024,0 -2.629,0.393 -3.663,1.625 z"
   fill="#99814A"
   display="inline" />
		<path
   id="path88"
   d="m 38.79,-9.997 c 0.616,0.004 5.941,0.208 5.941,5.94 V 17.15 H 22.135 c -0.131,0 -1.312,0.018 -2.529,0.626 -0.208,0.104 -0.421,0.228 -0.634,0.375 V -4.054 c 0.004,-0.608 0.203,-5.943 5.939,-5.943 H 38.79 m 0.002,-1 c 0,0 -6.941,0 -13.88,0 -6.939,0 -6.939,6.94 -6.939,6.94 v 26.369 c 0,-4.162 4.163,-4.162 4.163,-4.162 h 23.596 c 0,0 0,-15.269 0,-22.207 -10e-4,-6.94 -6.94,-6.94 -6.94,-6.94 z"
   fill="#333333"
   display="inline" />
	</g>
	<path
   id="path92"
   d="M 45.782,28.465 V 7.117 C 45.782,1.896 41.524,0 38.665,0 H 21.586 15.894 v 0.004 c -1.571,0 -2.843,1.273 -2.843,2.843 0,1.57 1.272,2.843 2.843,2.843 v 0.003 c 0.944,0 1.424,0.478 1.424,1.423 v 25.616 c 0,2.884 1.942,3.815 3.207,4.12 0.129,0.033 0.258,0.062 0.391,0.081 0.402,0.068 0.671,0.068 0.671,0.068 h 24.196 c 2.355,0 4.268,-1.912 4.268,-4.27 -0.002,-2.353 -1.914,-4.266 -4.269,-4.266 z m -24.196,5.69 c -0.784,0 -1.423,-0.636 -1.423,-1.422 0,-0.784 0.639,-1.424 1.423,-1.424 0.785,0 1.423,0.64 1.423,1.424 0,0.787 -0.638,1.422 -1.423,1.422 z m 0,-5.69 c 0,0 -0.269,0 -0.671,0.068 -0.132,0.019 -0.261,0.047 -0.391,0.081 -0.114,0.028 -0.237,0.066 -0.361,0.105 V 7.117 c 0,0 0,-4.27 -4.27,-4.27 h 5.692 17.079 c 0,0 4.27,0 4.27,4.27 0,4.268 0,21.348 0,21.348 H 24.433 Z m 24.196,5.69 H 25.594 c 0.16,-0.445 0.261,-0.919 0.261,-1.422 0,-0.501 -0.102,-0.976 -0.261,-1.424 h 17.34 2.848 c 0.783,0 1.42,0.64 1.42,1.424 0,0.787 -0.637,1.422 -1.42,1.422 z"
   fill="#99814A" />
</g>
</svg>
