<?xml version="1.0" encoding="UTF-8" standalone="no"?>
<svg
   xmlns:dc="http://purl.org/dc/elements/1.1/"
   xmlns:cc="http://creativecommons.org/ns#"
   xmlns:rdf="http://www.w3.org/1999/02/22-rdf-syntax-ns#"
   xmlns:svg="http://www.w3.org/2000/svg"
   xmlns="http://www.w3.org/2000/svg"
   height="256"
   width="256"
   class="style-svg replaced-svg"
   xml:space="preserve"
   viewBox="0 0 256 256"
   y="0px"
   x="0px"
   id="Capa_1"
   version="1.1"><metadata
   id="metadata1232"><rdf:RDF><cc:Work
       rdf:about=""><dc:format>image/svg+xml</dc:format><dc:type
         rdf:resource="http://purl.org/dc/dcmitype/StillImage" /><dc:title></dc:title></cc:Work></rdf:RDF></metadata><defs
   id="defs1230" />
<style
   id="style1137"
   type="text/css">
	.st0{fill:#99814A;}
</style>

<g
   transform="matrix(4.005669,0,0,4.005669,0.03775098,-214.94089)"
   id="g1278"><g
     id="g1211">
	<path
   class="st0"
   d="m 49.6,113.9 c -2,1.7 -5.1,1.6 -6.4,0 -0.7,-0.8 -0.6,-1.2 0.4,-1.4 1.4,-0.4 2.8,-0.4 4.2,0.2 0.6,0.3 1.2,0.8 1.8,1.2 z"
   id="path1139" />
	<path
   class="st0"
   d="m 14.4,114.1 c 0.6,-1.9 4.9,-2.4 6.6,-1.2 -0.1,2.1 -3.9,3.2 -6.6,1.2 z"
   id="path1141" />
	<path
   class="st0"
   d="m 63.5,83 c -0.1,2.2 -1.4,3.9 -3.2,4.3 -0.6,0.1 -0.9,-0.1 -0.8,-0.6 0.2,-1.6 0.7,-3.1 1.9,-4.3 0,0 0.1,-0.1 0.1,-0.1 0.5,-0.2 1.1,-0.4 1.6,-0.6 0.2,0.3 0.3,0.8 0.4,1.3 z"
   id="path1143" />
	<path
   class="st0"
   d="M 4.3,86.9 C 4.1,87 3.7,87.3 3.5,87.2 2,87 0.6,85.3 0.4,83.5 c 0,-0.2 0,-0.4 0,-0.6 0.1,-0.5 0.2,-1 0.3,-1.5 0.5,0.2 1.2,0.4 1.6,0.7 1.3,1.3 1.7,2.9 2,4.8 z"
   id="path1145" />
	<path
   class="st0"
   d="m 19.9,117 c 0.6,-2 3.5,-3.1 6.2,-2.4 0.2,2.4 -3.2,3.7 -6.2,2.4 z"
   id="path1147" />
	<path
   class="st0"
   d="M 0.7,93.9 C 2.8,93.4 5.3,95.1 6.2,97.7 4.2,99.2 1,96.9 0.7,93.9 Z"
   id="path1149" />
	<path
   class="st0"
   d="m 57.6,97.7 c 0.8,-1.8 2,-3.3 4,-3.9 0.4,-0.1 1,0 1.5,0 -0.1,0.4 -0.1,0.9 -0.3,1.3 -0.6,1.4 -1.6,2.6 -3.2,2.9 -0.6,0.1 -1.3,0 -1.9,0 0,0 -0.1,-0.1 -0.1,-0.3 z"
   id="path1151" />
	<path
   class="st0"
   d="m 37.6,114.6 c 2.8,-0.7 5.6,0.4 6.3,2.4 -2.5,1.5 -6.6,-0.2 -6.3,-2.4 z"
   id="path1153" />
	<path
   class="st0"
   d="M 4.7,81.8 C 1.9,81.7 1.1,77.5 2.3,75.6 c 1.9,0.3 3.1,3.3 2.4,6.2 z"
   id="path1155" />
	<path
   class="st0"
   d="m 61.5,75.5 c 1.3,2.2 0.2,6.4 -2.4,6.3 -0.7,-2.8 0.5,-6 2.4,-6.3 z"
   id="path1157" />
	<path
   class="st0"
   d="m 2.5,99.7 c 0.7,0 1.3,-0.2 2,-0.1 1.7,0.3 2.9,1.2 4,2.5 0.4,0.5 0.1,0.8 -0.4,1 -1.5,0.5 -2.8,0.1 -3.9,-0.8 -0.7,-0.6 -1.2,-1.4 -1.8,-2.1 0,-0.2 0.1,-0.4 0.1,-0.5 z"
   id="path1159" />
	<path
   class="st0"
   d="m 51.7,106.9 c 1.6,-2.1 5,-2.9 6.5,-1.5 -1.5,2.8 -5.3,3.3 -6.5,1.5 z"
   id="path1161" />
	<path
   class="st0"
   d="m 5.5,105.4 c 1.5,-1.4 4.9,-0.6 6.5,1.5 -1.3,2 -5,1.1 -6.5,-1.5 z"
   id="path1163" />
	<path
   class="st0"
   d="m 0,87.4 c 0.8,0.3 1.6,0.5 2.2,0.9 1.2,0.9 1.9,2.2 2.4,3.6 0.2,0.7 -0.1,1 -0.7,0.8 C 3.2,92.6 2.5,92.3 1.9,91.9 0.6,91.1 -0.1,89.4 0,87.4 Z"
   id="path1165" />
	<path
   class="st0"
   d="m 54.3,110.1 c -2,2.3 -5.4,2.4 -6.8,0.3 1.4,-1.7 5.4,-1.9 6.8,-0.3 z"
   id="path1167" />
	<path
   class="st0"
   d="m 16.3,110.3 c -0.9,2.1 -4.7,2.1 -6.7,-0.1 0.9,-1.6 4.7,-1.6 6.7,0.1 z"
   id="path1169" />
	<path
   class="st0"
   d="m 61.3,99.9 c -1.2,3.1 -5,4.2 -6.2,2.6 1.3,-2.3 4.4,-3.6 6.2,-2.6 z"
   id="path1171" />
	<path
   class="st0"
   d="m 63.9,87.6 c -0.1,2 -0.7,3.7 -2.4,4.7 -0.3,0.2 -0.7,0.4 -1,0.4 -0.4,0 -0.9,0 -1.2,-0.2 -0.2,-0.1 -0.1,-0.7 0.1,-1.1 0.8,-1.8 1.8,-3.5 3.9,-3.9 0.2,0.1 0.3,0.1 0.6,0.1 z"
   id="path1173" />
	<path
   class="st0"
   d="m 58.5,87.3 c -2,0.2 -4.5,-2.1 -4.5,-4 1.3,-0.4 2.3,0 3.3,0.9 0.9,0.7 1.4,1.8 1.2,3.1 z"
   id="path1175" />
	<path
   class="st0"
   d="m 5.3,87.3 c -0.4,-2.5 2,-4.7 4.4,-4 0.1,1.7 -2.4,4.1 -4.4,4 z"
   id="path1177" />
	<path
   class="st0"
   d="M 7.2,97.4 C 6,95.2 7.5,92.1 9.7,92.1 c 1,1.6 -0.4,4.5 -2.5,5.3 z"
   id="path1179" />
	<path
   class="st0"
   d="m 54,92.1 c 2.4,0 3.7,3.3 2.6,5.3 -2,-0.5 -3.4,-3.5 -2.6,-5.3 z"
   id="path1181" />
	<path
   class="st0"
   d="m 42.4,112.1 c -1.3,-1.9 0.2,-4.8 1.4,-5.7 0.1,-0.1 0.7,0.1 0.8,0.3 0.7,1.1 0.4,2.9 -0.6,4 -0.5,0.6 -1,0.9 -1.6,1.4 z"
   id="path1183" />
	<path
   class="st0"
   d="m 58,82 c -2.3,0.4 -4.6,-0.9 -5.2,-2.9 2.1,-1.2 4.8,0.3 5.2,2.9 z"
   id="path1185" />
	<path
   class="st0"
   d="m 16.8,109.5 c -2.3,-1.8 -2.6,-4.4 -0.7,-5.9 1.7,1.1 2.1,4.2 0.7,5.9 z"
   id="path1187" />
	<path
   class="st0"
   d="m 19.6,106.3 c 1.9,1.1 2.9,4 1.8,5.7 -2.4,-1 -3.3,-3.8 -1.8,-5.7 z"
   id="path1189" />
	<path
   class="st0"
   d="m 47.6,103.5 c 2,1.4 1.6,4.3 -0.6,5.9 -1.4,-1.4 -1.1,-4.5 0.6,-5.9 z"
   id="path1191" />
	<path
   class="st0"
   d="m 26.5,113.5 c -2.6,-0.4 -4.1,-3 -3,-5.1 2,0.3 3.5,2.9 3,5.1 z"
   id="path1193" />
	<path
   class="st0"
   d="m 40.2,108.3 c 1.2,2.1 -0.2,4.7 -2.8,5.2 -0.8,-1.8 0.6,-4.4 2.8,-5.2 z"
   id="path1195" />
	<path
   class="st0"
   d="m 58,92.3 c -1.9,-0.2 -3.9,-2.5 -3.7,-4.3 0,-0.6 0.5,-0.5 0.9,-0.5 2.1,0.5 3.4,2.5 2.8,4.8 z"
   id="path1197" />
	<path
   class="st0"
   d="m 5.8,92.3 c -0.6,-2.2 0.9,-4.5 3,-4.8 0.5,-0.1 0.8,0.1 0.7,0.7 -0.3,1.6 -1.5,4 -3.7,4.1 z"
   id="path1199" />
	<path
   class="st0"
   d="M 5.8,82 C 6.1,79.4 9,77.9 10.9,79 10.7,80.9 8.1,82.5 5.8,82 Z"
   id="path1201" />
	<path
   class="st0"
   d="m 50.4,100.1 c 2.2,0.6 2.4,4.5 0.6,5.9 -1.6,-1 -1.9,-3.8 -0.6,-5.9 z"
   id="path1203" />
	<path
   class="st0"
   d="m 12.9,106.1 c -1.9,-1.6 -1.6,-5.2 0.4,-5.9 1.4,1.4 1.2,4.6 -0.4,5.9 z"
   id="path1205" />
	<path
   class="st0"
   d="m 54.2,102 c -1.7,-0.5 -2.5,-3.8 -1.6,-5.7 1.1,0.3 1.7,1 2.1,2 0.5,1.2 0.3,2.7 -0.5,3.7 z"
   id="path1207" />
	<path
   class="st0"
   d="m 11.2,96.3 c 0.9,1.9 0.1,5.2 -1.6,5.7 -1.6,-1.9 -0.8,-5 1.6,-5.7 z"
   id="path1209" />
</g><g
     id="g1225">
	<g
   id="g1223">
		<path
   class="st0"
   d="m 26,65.1 8.9,5.2 c 0.2,0.1 0.6,0.1 0.7,-0.2 l 0.3,-0.4 C 36,69.5 36,69.1 35.7,69 L 26.8,63.8 C 26.6,63.7 26.2,63.7 26.1,64 l -0.3,0.4 c -0.1,0.3 0,0.6 0.2,0.7 z"
   id="path1213" />
		<path
   class="st0"
   d="m 18.3,78.5 8.9,5.2 c 0.2,0.1 0.6,0.1 0.7,-0.2 l 0.3,-0.4 c 0.1,-0.2 0.1,-0.6 -0.2,-0.7 l -8.9,-5.2 c -0.2,-0.1 -0.6,-0.1 -0.7,0.2 l -0.3,0.4 c -0.2,0.3 -0.1,0.6 0.2,0.7 z"
   id="path1215" />
		<path
   class="st0"
   d="m 49.8,84.8 -17.9,-9.3 2.4,-4.2 c 0.1,-0.2 0.1,-0.6 -0.2,-0.7 l -8,-4.6 c -0.2,-0.1 -0.6,-0.1 -0.7,0.2 L 19.7,76 c -0.1,0.2 -0.1,0.6 0.2,0.7 l 8,4.6 c 0.2,0.1 0.6,0.1 0.7,-0.2 L 31,77 48,87.8 c 0.2,0.2 0.6,0.1 0.7,-0.2 L 50,85.4 c 0.1,-0.2 0,-0.5 -0.2,-0.6 z"
   id="path1217" />
		<path
   class="st0"
   d="M 52.6,86.1 51.7,85.6 C 51.5,85.5 51.1,85.5 51,85.8 l -1.5,2.7 c -0.1,0.2 -0.1,0.6 0.2,0.7 l 0.9,0.5 c 0.2,0.1 0.6,0.1 0.7,-0.2 l 1.5,-2.7 c 0.1,-0.2 0,-0.5 -0.2,-0.7 z"
   id="path1219" />
		<path
   class="st0"
   d="m 33.3,89.3 h -1.1 c 0.1,-0.2 0.2,-0.3 0.2,-0.6 V 87.9 C 32.4,87.4 32,87 31.6,87 h -17 c -0.5,0 -0.9,0.4 -0.9,0.9 v 0.8 c 0,0.2 0.1,0.4 0.2,0.6 h -1.1 c -0.5,0 -0.9,0.4 -0.9,0.9 v 3.4 c 0,0.5 0.4,0.9 0.9,0.9 h 20.4 c 0.5,0 0.8,-0.4 0.8,-0.9 v -3.4 c 0.1,-0.5 -0.2,-0.9 -0.7,-0.9 z m -1.2,3.9 H 14.2 c -0.5,0 -0.9,-0.4 -0.9,-0.9 v -0.9 c 0,-0.5 0.4,-0.9 0.9,-0.9 h 17.9 c 0.5,0 0.9,0.4 0.9,0.9 v 0.9 c 0,0.5 -0.4,0.9 -0.9,0.9 z"
   id="path1221" />
	</g>
</g></g>
</svg>
