<?xml version="1.0" encoding="UTF-8" standalone="no"?>
<svg
   xmlns:dc="http://purl.org/dc/elements/1.1/"
   xmlns:cc="http://creativecommons.org/ns#"
   xmlns:rdf="http://www.w3.org/1999/02/22-rdf-syntax-ns#"
   xmlns:svg="http://www.w3.org/2000/svg"
   xmlns="http://www.w3.org/2000/svg"
   height="256"
   width="256"
   class="style-svg replaced-svg"
   xml:space="preserve"
   viewBox="0 0 256 256"
   y="0px"
   x="0px"
   id="Capa_1"
   version="1.1"><metadata
   id="metadata97"><rdf:RDF><cc:Work
       rdf:about=""><dc:format>image/svg+xml</dc:format><dc:type
         rdf:resource="http://purl.org/dc/dcmitype/StillImage" /><dc:title></dc:title></cc:Work></rdf:RDF></metadata><defs
   id="defs95" />
<style
   id="style2"
   type="text/css">
	.st0{fill:#99814A;}
</style>
<g
   transform="matrix(4.0378549,0,0,4.0378481,-2.4227129,-216.99927)"
   id="g90">
	<g
   id="g14">
		<path
   id="path4"
   d="m 22.4,95.5 c -0.2,0.5 0.2,1.1 0.7,1.1 H 41.4 C 42,96.6 42.3,96 42.1,95.5 42,95.3 41.9,95 41.7,94.8 h -19 c -0.1,0.3 -0.2,0.5 -0.3,0.7 z"
   class="st0" />
		<path
   id="path6"
   d="m 48.3,73.5 c 0,-8.9 -7.2,-16 -16,-16 -8.9,0 -16,7.2 -16,16 0,7.4 5,13.6 11.8,15.5 l -0.6,2.8 c -1,0.3 -2,0.7 -2.7,1.2 h 15 C 39,92.5 38.1,92.1 37.1,91.8 L 36.5,89 c 6.8,-1.8 11.8,-8.1 11.8,-15.5 z m -16,13.9 c -7.7,0 -13.9,-6.2 -13.9,-13.9 0,-7.7 6.2,-13.9 13.9,-13.9 7.7,0 13.9,6.2 13.9,13.9 0,7.7 -6.2,13.9 -13.9,13.9 z"
   class="st0" />
		<path
   id="path8"
   d="m 32.3,60.8 c -7,0 -12.8,5.7 -12.8,12.8 0,7.1 5.7,12.8 12.8,12.8 7.1,0 12.8,-5.7 12.8,-12.8 0,-7.1 -5.7,-12.8 -12.8,-12.8 z m 0,20.7 c -4.4,0 -8,-3.6 -8,-8 0,-4.4 3.6,-8 8,-8 4.4,0 8,3.6 8,8 0,4.5 -3.6,8 -8,8 z"
   class="st0" />
		<path
   id="path10"
   d="m 33.1,68.5 0.4,-1.2 c 0,-0.1 0,-0.2 0,-0.3 -0.1,-0.1 -0.2,-0.1 -0.3,-0.1 -2.8,0 -5.5,1.4 -7.2,3.7 v 0.1 c -0.1,0.2 0,0.4 0.2,0.4 l 1.1,0.4 c 0.1,0 0.3,0 0.4,-0.1 1.3,-1.6 3.1,-2.6 5.1,-2.7 0.2,0 0.3,-0.1 0.3,-0.2 z"
   class="st0" />
		<path
   id="path12"
   d="m 32.3,70.6 c -1.6,0 -2.9,1.3 -2.9,2.9 0,1.6 1.3,2.9 2.9,2.9 1.6,0 2.9,-1.3 2.9,-2.9 0,-1.6 -1.3,-2.9 -2.9,-2.9 z"
   class="st0" />
	</g>
	<g
   id="g88">
		<path
   id="path16"
   d="m 20.3,116.6 c 0,0 0.6,0.3 1.5,0.4 0.4,0.1 1,0.2 1.5,0.1 0.6,-0.1 1.1,-0.2 1.7,-0.4 1.1,-0.5 1.6,-1.2 1.8,-1.8 0.2,-0.6 0.2,-1 0.2,-1 0,0 -0.1,0 -0.4,-0.1 -0.2,0 -0.5,-0.1 -0.9,-0.1 -0.8,0 -1.8,0.1 -2.9,0.4 -1.1,0.4 -1.8,1 -2.1,1.5 -0.4,0.5 -0.4,1 -0.4,1 z"
   class="st0" />
		<path
   id="path18"
   d="m 24,107.6 c 0,0 0.4,0.1 1,0.5 0.3,0.2 0.5,0.4 0.8,0.7 0.3,0.3 0.6,0.6 0.9,1.1 0.5,0.9 0.7,1.8 0.7,2.4 0,0.6 -0.2,1 -0.2,1 0,0 -0.1,0 -0.3,-0.1 -0.2,-0.1 -0.5,-0.2 -0.9,-0.3 -0.7,-0.3 -1.5,-0.9 -2,-1.9 -0.5,-1 -0.4,-1.8 -0.3,-2.4 0,-0.7 0.3,-1 0.3,-1 z"
   class="st0" />
		<path
   id="path20"
   d="m 14.8,113.6 c 0,0 0.5,0.4 1.4,0.7 0.4,0.2 0.9,0.3 1.5,0.4 0.6,0.1 1.2,0 1.8,-0.1 1.2,-0.3 1.8,-0.9 2.1,-1.4 0.3,-0.5 0.4,-0.9 0.4,-0.9 0,0 -0.1,-0.1 -0.3,-0.1 -0.2,-0.1 -0.5,-0.2 -0.9,-0.3 -0.4,-0.1 -0.8,-0.2 -1.3,-0.2 -0.5,0 -1,-0.1 -1.6,0 -1.2,0.2 -1.9,0.7 -2.4,1.1 -0.6,0.4 -0.7,0.8 -0.7,0.8 z"
   class="st0" />
		<path
   id="path22"
   d="m 20.2,105.5 c 0,0 0.4,0.2 0.8,0.6 0.2,0.2 0.5,0.5 0.7,0.9 0.2,0.3 0.5,0.7 0.6,1.3 0.3,1 0.3,1.9 0.2,2.5 -0.1,0.6 -0.4,0.9 -0.4,0.9 0,0 -0.1,0 -0.3,-0.1 -0.2,-0.1 -0.5,-0.3 -0.8,-0.5 -0.3,-0.2 -0.6,-0.5 -0.9,-0.9 -0.3,-0.4 -0.5,-0.9 -0.7,-1.4 -0.3,-1.1 -0.1,-1.9 0.2,-2.4 0.3,-0.6 0.6,-0.9 0.6,-0.9 z"
   class="st0" />
		<path
   id="path24"
   d="m 9.9,109.7 c 0,0 0.4,0.5 1.2,0.9 0.4,0.2 0.8,0.5 1.3,0.7 0.5,0.2 1.1,0.3 1.7,0.2 1.2,0 1.9,-0.5 2.4,-0.9 0.4,-0.4 0.6,-0.9 0.6,-0.9 0,0 -0.4,-0.4 -1.1,-0.7 -0.4,-0.2 -0.8,-0.3 -1.3,-0.5 -0.5,-0.1 -1,-0.3 -1.6,-0.3 -1.2,-0.1 -2,0.3 -2.5,0.6 -0.5,0.5 -0.7,0.9 -0.7,0.9 z"
   class="st0" />
		<path
   id="path26"
   d="m 16.8,102.8 c 0,0 0.4,0.3 0.7,0.8 0.2,0.3 0.4,0.6 0.5,1 0.2,0.4 0.3,0.8 0.4,1.3 0.1,1.1 -0.1,1.9 -0.3,2.5 -0.3,0.6 -0.6,0.9 -0.6,0.9 0,0 -0.4,-0.3 -1,-0.9 -0.3,-0.3 -0.5,-0.6 -0.7,-1 -0.2,-0.4 -0.3,-0.9 -0.4,-1.5 -0.1,-1.1 0.3,-1.8 0.6,-2.3 0.4,-0.6 0.8,-0.8 0.8,-0.8 z"
   class="st0" />
		<path
   id="path28"
   d="m 6,104.9 c 0,0 0.3,0.5 1,1.2 0.3,0.3 0.7,0.6 1.2,0.9 0.5,0.3 1.1,0.5 1.7,0.6 1.2,0.2 2,-0.1 2.5,-0.5 0.5,-0.3 0.7,-0.7 0.7,-0.7 0,0 -0.3,-0.4 -1,-0.9 -0.3,-0.2 -0.7,-0.5 -1.2,-0.7 -0.4,-0.2 -0.9,-0.4 -1.5,-0.6 -1.2,-0.3 -2,-0.1 -2.6,0.1 -0.5,0.3 -0.8,0.6 -0.8,0.6 z"
   class="st0" />
		<path
   id="path30"
   d="m 14.1,99.5 c 0,0 0.3,0.3 0.5,0.9 0.1,0.3 0.2,0.7 0.3,1.1 0.1,0.4 0.1,0.9 0.1,1.4 -0.1,1.1 -0.4,1.9 -0.8,2.4 -0.4,0.5 -0.7,0.7 -0.7,0.7 0,0 -0.4,-0.4 -0.8,-1 -0.2,-0.3 -0.4,-0.7 -0.5,-1.2 -0.1,-0.5 -0.1,-1 -0.1,-1.5 0.1,-1.1 0.6,-1.8 1.1,-2.2 0.5,-0.5 0.9,-0.6 0.9,-0.6 z"
   class="st0" />
		<path
   id="path32"
   d="m 3.1,99.5 c 0,0 0,0.2 0.2,0.4 0.1,0.2 0.3,0.6 0.6,0.9 0.3,0.4 0.6,0.8 1,1.1 0.4,0.4 0.9,0.7 1.5,0.9 1.2,0.4 2,0.3 2.6,0 0.6,-0.2 0.9,-0.6 0.9,-0.6 0,0 -0.2,-0.5 -0.8,-1.1 -0.3,-0.3 -0.6,-0.6 -1,-0.9 -0.4,-0.3 -0.8,-0.6 -1.4,-0.9 -1.1,-0.5 -2,-0.5 -2.6,-0.4 -0.7,0.3 -1,0.6 -1,0.6 z"
   class="st0" />
		<path
   id="path34"
   d="m 12,95.7 c 0,0 0,0.1 0.1,0.3 0.1,0.2 0.2,0.4 0.2,0.7 0.1,0.3 0.1,0.7 0.1,1.1 0,0.4 0,0.9 -0.2,1.4 -0.3,1 -0.8,1.7 -1.2,2.2 -0.5,0.4 -0.9,0.6 -0.9,0.6 0,0 -0.3,-0.4 -0.6,-1.1 -0.1,-0.4 -0.2,-0.8 -0.3,-1.2 0,-0.5 0,-1 0.2,-1.5 0.3,-1 0.9,-1.6 1.5,-1.9 0.7,-0.5 1.1,-0.6 1.1,-0.6 z"
   class="st0" />
		<path
   id="path36"
   d="m 1.2,93.5 c 0,0 0,0.2 0.1,0.4 0.1,0.3 0.2,0.6 0.4,1 0.2,0.4 0.4,0.9 0.8,1.3 0.3,0.4 0.8,0.8 1.3,1.2 1,0.7 1.9,0.7 2.5,0.5 0.6,-0.1 0.9,-0.4 0.9,-0.4 0,0 -0.1,-0.5 -0.6,-1.2 C 6.4,96 6.1,95.6 5.8,95.2 5.5,94.8 5.1,94.4 4.6,94.1 3.6,93.4 2.8,93.2 2.1,93.2 1.6,93.3 1.2,93.5 1.2,93.5 Z"
   class="st0" />
		<path
   id="path38"
   d="m 10.8,91.6 c 0,0 0,0.1 0.1,0.3 0,0.2 0.1,0.4 0.1,0.8 0,0.3 0,0.7 -0.1,1.1 -0.1,0.4 -0.2,0.9 -0.4,1.3 C 10,96.1 9.4,96.6 8.9,97 8.4,97.3 8,97.4 8,97.4 c 0,0 -0.2,-0.5 -0.3,-1.2 0,-0.4 -0.1,-0.8 0,-1.3 0.1,-0.5 0.2,-1 0.5,-1.5 0.5,-1 1.2,-1.4 1.8,-1.6 0.3,-0.2 0.8,-0.2 0.8,-0.2 z"
   class="st0" />
		<path
   id="path40"
   d="m 0.6,87.3 c 0,0 0,0.6 0.2,1.5 0.1,0.4 0.2,0.9 0.5,1.4 0.2,0.5 0.6,1 1.1,1.4 0.9,0.8 1.7,1 2.3,1 0.6,0 1,-0.2 1,-0.2 0,0 0,-0.5 -0.3,-1.3 C 5.2,90.8 5,90.4 4.8,90 4.6,89.6 4.3,89.1 3.9,88.7 3.1,87.8 2.3,87.5 1.7,87.3 1,87.2 0.6,87.3 0.6,87.3 Z"
   class="st0" />
		<path
   id="path42"
   d="m 10.3,87.3 c 0,0 0.1,0.4 -0.1,1.1 -0.1,0.3 -0.2,0.7 -0.3,1.1 -0.2,0.4 -0.4,0.8 -0.7,1.2 -0.6,0.8 -1.4,1.3 -2,1.5 -0.6,0.2 -1,0.2 -1,0.2 0,0 -0.1,-0.5 -0.1,-1.3 0,-0.4 0.1,-0.8 0.2,-1.3 0.2,-0.4 0.4,-0.9 0.8,-1.3 0.7,-0.8 1.5,-1.1 2.1,-1.2 0.7,-0.1 1.1,0 1.1,0 z"
   class="st0" />
		<path
   id="path44"
   d="m 1.2,81.2 c 0,0 -0.1,0.6 -0.1,1.5 0,0.4 0,1 0.2,1.5 0.2,0.5 0.4,1.1 0.8,1.6 0.7,1 1.5,1.3 2.1,1.5 0.6,0.1 1,0 1,0 0,0 0.1,-0.5 0,-1.3 C 5.1,85.6 5,85.2 4.9,84.7 4.7,84.2 4.6,83.7 4.2,83.2 3.6,82.2 2.9,81.7 2.3,81.4 1.6,81.1 1.2,81.2 1.2,81.2 Z"
   class="st0" />
		<path
   id="path46"
   d="m 10.8,83 c 0,0 0,0.4 -0.3,1 -0.1,0.3 -0.3,0.6 -0.5,1 -0.2,0.4 -0.5,0.7 -0.9,1.1 -0.8,0.7 -1.6,1 -2.2,1.1 -0.6,0.1 -1,0 -1,0 0,0 0,-0.5 0.2,-1.3 0.1,-0.4 0.2,-0.8 0.5,-1.2 0.2,-0.4 0.6,-0.8 1,-1.1 0.9,-0.7 1.7,-0.8 2.3,-0.8 0.5,0 0.9,0.2 0.9,0.2 z"
   class="st0" />
		<path
   id="path48"
   d="m 3,75.2 c 0,0 -0.3,0.6 -0.4,1.5 -0.1,0.4 -0.2,1 -0.1,1.5 0.1,0.6 0.2,1.1 0.4,1.7 0.5,1.1 1.2,1.6 1.8,1.8 0.6,0.2 1,0.2 1,0.2 0,0 0,-0.1 0.1,-0.4 C 5.8,81.3 5.9,81 5.9,80.6 5.9,79.8 5.8,78.8 5.5,77.7 5.1,76.6 4.5,75.9 4,75.6 3.4,75.2 3,75.2 3,75.2 Z"
   class="st0" />
		<path
   id="path50"
   d="m 12,78.9 c 0,0 -0.1,0.4 -0.5,1 -0.2,0.3 -0.4,0.6 -0.7,0.8 -0.3,0.3 -0.6,0.6 -1.1,0.9 -0.9,0.5 -1.8,0.7 -2.4,0.7 -0.6,0 -1,-0.2 -1,-0.2 0,0 0,-0.1 0.1,-0.3 0.1,-0.2 0.2,-0.5 0.3,-0.9 0.3,-0.7 0.9,-1.5 1.9,-2 1,-0.5 1.8,-0.4 2.4,-0.3 0.6,0.1 1,0.3 1,0.3 z"
   class="st0" />
		<path
   id="path52"
   d="m 44.3,116.6 c 0,0 -0.6,0.3 -1.5,0.4 -0.4,0.1 -1,0.2 -1.5,0.1 -0.6,-0.1 -1.1,-0.2 -1.7,-0.4 -1.1,-0.5 -1.6,-1.2 -1.8,-1.8 -0.2,-0.6 -0.2,-1 -0.2,-1 0,0 0.1,0 0.4,-0.1 0.2,0 0.5,-0.1 0.9,-0.1 0.8,0 1.8,0.1 2.9,0.4 1.1,0.4 1.8,1 2.1,1.5 0.4,0.5 0.4,1 0.4,1 z"
   class="st0" />
		<path
   id="path54"
   d="m 40.6,107.6 c 0,0 -0.4,0.1 -1,0.5 -0.3,0.2 -0.6,0.4 -0.8,0.7 -0.3,0.3 -0.6,0.6 -0.9,1.1 -0.5,0.9 -0.7,1.8 -0.7,2.4 0,0.6 0.2,1 0.2,1 0,0 0.1,0 0.3,-0.1 0.2,-0.1 0.5,-0.2 0.9,-0.3 0.7,-0.3 1.5,-0.9 2,-1.9 0.5,-1 0.4,-1.8 0.3,-2.4 0,-0.7 -0.3,-1 -0.3,-1 z"
   class="st0" />
		<path
   id="path56"
   d="m 49.8,113.6 c 0,0 -0.5,0.4 -1.4,0.7 -0.4,0.2 -0.9,0.3 -1.5,0.4 -0.6,0.1 -1.2,0 -1.8,-0.1 -1.2,-0.3 -1.8,-0.9 -2.1,-1.4 -0.3,-0.5 -0.4,-0.9 -0.4,-0.9 0,0 0.1,-0.1 0.3,-0.1 0.2,-0.1 0.5,-0.2 0.9,-0.3 0.4,-0.1 0.8,-0.2 1.3,-0.2 0.5,0 1,-0.1 1.6,0 1.2,0.2 1.9,0.7 2.4,1.1 0.6,0.4 0.7,0.8 0.7,0.8 z"
   class="st0" />
		<path
   id="path58"
   d="m 44.4,105.5 c 0,0 -0.4,0.2 -0.8,0.6 -0.2,0.2 -0.5,0.5 -0.7,0.9 -0.2,0.3 -0.5,0.7 -0.6,1.3 -0.3,1 -0.3,1.9 -0.2,2.5 0.1,0.6 0.4,0.9 0.4,0.9 0,0 0.1,0 0.3,-0.1 0.2,-0.1 0.5,-0.3 0.8,-0.5 0.3,-0.2 0.6,-0.5 0.9,-0.9 0.3,-0.4 0.5,-0.9 0.7,-1.4 0.3,-1.1 0.1,-1.9 -0.2,-2.4 -0.2,-0.6 -0.6,-0.9 -0.6,-0.9 z"
   class="st0" />
		<path
   id="path60"
   d="m 54.7,109.7 c 0,0 -0.4,0.5 -1.2,0.9 -0.4,0.2 -0.8,0.5 -1.3,0.7 -0.5,0.2 -1.1,0.3 -1.7,0.2 -1.2,0 -1.9,-0.5 -2.4,-0.9 -0.4,-0.4 -0.6,-0.9 -0.6,-0.9 0,0 0.4,-0.4 1.1,-0.7 0.4,-0.2 0.8,-0.3 1.3,-0.5 0.5,-0.1 1,-0.3 1.6,-0.3 1.2,-0.1 2,0.3 2.5,0.6 0.5,0.5 0.7,0.9 0.7,0.9 z"
   class="st0" />
		<path
   id="path62"
   d="m 47.8,102.8 c 0,0 -0.4,0.3 -0.7,0.8 -0.2,0.3 -0.4,0.6 -0.5,1 -0.2,0.4 -0.3,0.8 -0.4,1.3 -0.1,1.1 0.1,1.9 0.3,2.5 0.3,0.6 0.6,0.9 0.6,0.9 0,0 0.4,-0.3 1,-0.9 0.3,-0.3 0.5,-0.6 0.7,-1 0.2,-0.4 0.3,-0.9 0.4,-1.5 0.1,-1.1 -0.3,-1.8 -0.6,-2.3 -0.4,-0.6 -0.8,-0.8 -0.8,-0.8 z"
   class="st0" />
		<path
   id="path64"
   d="m 58.6,104.9 c 0,0 -0.3,0.5 -1,1.2 -0.3,0.3 -0.7,0.6 -1.2,0.9 -0.5,0.3 -1.1,0.5 -1.7,0.6 -1.2,0.2 -2,-0.1 -2.5,-0.5 -0.5,-0.3 -0.7,-0.7 -0.7,-0.7 0,0 0.3,-0.4 1,-0.9 0.3,-0.2 0.7,-0.5 1.2,-0.7 0.4,-0.2 0.9,-0.4 1.5,-0.6 1.2,-0.3 2,-0.1 2.6,0.1 0.5,0.3 0.8,0.6 0.8,0.6 z"
   class="st0" />
		<path
   id="path66"
   d="m 50.5,99.5 c 0,0 -0.3,0.3 -0.5,0.9 -0.1,0.3 -0.2,0.7 -0.3,1.1 -0.1,0.4 -0.1,0.9 -0.1,1.4 0.1,1.1 0.4,1.9 0.8,2.4 0.4,0.5 0.7,0.7 0.7,0.7 0,0 0.4,-0.4 0.8,-1 0.2,-0.3 0.4,-0.7 0.5,-1.2 0.1,-0.5 0.1,-1 0.1,-1.5 -0.1,-1.1 -0.6,-1.8 -1.1,-2.2 -0.5,-0.5 -0.9,-0.6 -0.9,-0.6 z"
   class="st0" />
		<path
   id="path68"
   d="m 61.6,99.5 c 0,0 0,0.2 -0.2,0.4 -0.1,0.2 -0.3,0.6 -0.6,0.9 -0.3,0.4 -0.6,0.8 -1,1.1 -0.4,0.4 -0.9,0.7 -1.5,0.9 -1.2,0.4 -2,0.3 -2.6,0 -0.6,-0.2 -0.9,-0.6 -0.9,-0.6 0,0 0.2,-0.5 0.8,-1.1 0.3,-0.3 0.6,-0.6 1,-0.9 0.4,-0.3 0.8,-0.6 1.4,-0.9 1.1,-0.5 2,-0.5 2.6,-0.4 0.6,0.3 1,0.6 1,0.6 z"
   class="st0" />
		<path
   id="path70"
   d="m 52.6,95.7 c 0,0 0,0.1 -0.1,0.3 -0.1,0.2 -0.2,0.4 -0.2,0.7 -0.1,0.3 -0.1,0.7 -0.1,1.1 0,0.4 0,0.9 0.2,1.4 0.3,1 0.8,1.7 1.2,2.2 0.5,0.4 0.9,0.6 0.9,0.6 0,0 0.3,-0.4 0.6,-1.1 0.1,-0.4 0.2,-0.8 0.3,-1.2 0,-0.5 0,-1 -0.2,-1.5 -0.3,-1 -0.9,-1.6 -1.5,-1.9 -0.7,-0.5 -1.1,-0.6 -1.1,-0.6 z"
   class="st0" />
		<path
   id="path72"
   d="m 63.4,93.5 c 0,0 0,0.2 -0.1,0.4 -0.1,0.3 -0.2,0.6 -0.4,1 -0.2,0.4 -0.4,0.9 -0.8,1.3 -0.3,0.4 -0.8,0.8 -1.3,1.2 -1,0.7 -1.9,0.7 -2.5,0.5 -0.6,-0.1 -0.9,-0.4 -0.9,-0.4 0,0 0.1,-0.5 0.6,-1.2 0.2,-0.3 0.5,-0.7 0.8,-1.1 0.3,-0.4 0.7,-0.8 1.2,-1.1 1,-0.7 1.8,-0.9 2.5,-0.9 0.5,0.1 0.9,0.3 0.9,0.3 z"
   class="st0" />
		<path
   id="path74"
   d="m 53.8,91.6 c 0,0 0,0.1 -0.1,0.3 0,0.2 -0.1,0.4 -0.1,0.8 0,0.3 0,0.7 0.1,1.1 0.1,0.4 0.2,0.9 0.4,1.3 0.5,1 1.1,1.5 1.6,1.9 0.5,0.3 0.9,0.4 0.9,0.4 0,0 0.2,-0.5 0.3,-1.2 0,-0.4 0.1,-0.8 0,-1.3 -0.1,-0.5 -0.2,-1 -0.5,-1.5 -0.5,-1 -1.2,-1.4 -1.8,-1.6 -0.3,-0.2 -0.8,-0.2 -0.8,-0.2 z"
   class="st0" />
		<path
   id="path76"
   d="m 64,87.3 c 0,0 0,0.6 -0.2,1.5 -0.1,0.4 -0.2,0.9 -0.5,1.4 -0.2,0.5 -0.6,1 -1.1,1.4 -0.9,0.8 -1.7,1 -2.3,1 -0.6,0 -1,-0.2 -1,-0.2 0,0 0,-0.5 0.3,-1.3 0.1,-0.4 0.3,-0.8 0.6,-1.2 0.2,-0.4 0.5,-0.9 0.9,-1.3 0.8,-0.9 1.6,-1.2 2.2,-1.4 0.7,0 1.1,0.1 1.1,0.1 z"
   class="st0" />
		<path
   id="path78"
   d="m 54.3,87.3 c 0,0 -0.1,0.4 0.1,1.1 0.1,0.3 0.2,0.7 0.3,1.1 0.2,0.4 0.4,0.8 0.7,1.2 0.6,0.8 1.4,1.3 2,1.5 0.6,0.2 1,0.2 1,0.2 0,0 0.1,-0.5 0.1,-1.3 0,-0.4 -0.1,-0.8 -0.2,-1.3 -0.2,-0.4 -0.4,-0.9 -0.8,-1.3 -0.7,-0.8 -1.5,-1.1 -2.1,-1.2 -0.7,-0.1 -1.1,0 -1.1,0 z"
   class="st0" />
		<path
   id="path80"
   d="m 63.4,81.2 c 0,0 0.1,0.6 0.1,1.5 0,0.4 0,1 -0.2,1.5 -0.2,0.5 -0.4,1.1 -0.8,1.6 -0.7,1 -1.5,1.3 -2.1,1.5 -0.6,0.1 -1,0 -1,0 0,0 -0.1,-0.5 0,-1.3 0.1,-0.4 0.2,-0.8 0.3,-1.3 0.2,-0.5 0.3,-1 0.7,-1.5 0.6,-1 1.3,-1.5 1.9,-1.8 0.7,-0.3 1.1,-0.2 1.1,-0.2 z"
   class="st0" />
		<path
   id="path82"
   d="m 53.9,83 c 0,0 0,0.4 0.3,1 0.1,0.3 0.3,0.6 0.5,1 0.2,0.4 0.5,0.7 0.9,1.1 0.8,0.7 1.6,1 2.2,1.1 0.6,0.1 1,0 1,0 0,0 0,-0.5 -0.2,-1.3 -0.1,-0.4 -0.2,-0.8 -0.5,-1.2 -0.2,-0.4 -0.6,-0.8 -1,-1.1 -0.9,-0.7 -1.7,-0.8 -2.3,-0.8 -0.5,0 -0.9,0.2 -0.9,0.2 z"
   class="st0" />
		<path
   id="path84"
   d="m 61.6,75.2 c 0,0 0.3,0.6 0.4,1.5 0.1,0.4 0.2,1 0.1,1.5 -0.1,0.6 -0.2,1.1 -0.4,1.7 -0.5,1.1 -1.2,1.6 -1.8,1.8 -0.6,0.2 -1,0.2 -1,0.2 0,0 0,-0.1 -0.1,-0.4 0,-0.2 -0.1,-0.5 -0.1,-0.9 0,-0.8 0.1,-1.8 0.4,-2.9 0.4,-1.1 1,-1.8 1.5,-2.1 0.6,-0.4 1,-0.4 1,-0.4 z"
   class="st0" />
		<path
   id="path86"
   d="m 52.6,78.9 c 0,0 0.1,0.4 0.5,1 0.2,0.3 0.4,0.6 0.7,0.8 0.3,0.3 0.6,0.6 1.1,0.9 0.9,0.5 1.8,0.7 2.4,0.7 0.6,0 1,-0.2 1,-0.2 0,0 0,-0.1 -0.1,-0.3 -0.1,-0.2 -0.2,-0.5 -0.3,-0.9 -0.3,-0.7 -0.9,-1.5 -1.9,-2 -1,-0.5 -1.8,-0.4 -2.4,-0.3 -0.6,0.1 -1,0.3 -1,0.3 z"
   class="st0" />
	</g>
</g>
</svg>
