<?xml version="1.0" encoding="UTF-8" standalone="no"?>
<svg
   xmlns:dc="http://purl.org/dc/elements/1.1/"
   xmlns:cc="http://creativecommons.org/ns#"
   xmlns:rdf="http://www.w3.org/1999/02/22-rdf-syntax-ns#"
   xmlns:svg="http://www.w3.org/2000/svg"
   xmlns="http://www.w3.org/2000/svg"
   id="svg3139"
   version="1.1"
   viewBox="0 0 67.733331 67.733335"
   height="256"
   width="256">
  <defs
     id="defs3133" />
  <metadata
     id="metadata3136">
    <rdf:RDF>
      <cc:Work
         rdf:about="">
        <dc:format>image/svg+xml</dc:format>
        <dc:type
           rdf:resource="http://purl.org/dc/dcmitype/StillImage" />
        <dc:title></dc:title>
      </cc:Work>
    </rdf:RDF>
  </metadata>
  <g
     id="layer1">
    <g
       id="g3402">
      <g
         id="g1759"
         transform="scale(0.26458333)">
        <path
           style="stroke-width:4.01328"
           id="path2"
           d="m 79.363107,253.83586 c 0,0 2.35178,1.04747 5.915569,1.69762 1.789922,0.28896 3.836692,0.606 6.064061,0.40133 2.239408,-0.2408 4.595201,-0.77456 6.862702,-1.77788 4.535001,-2.03072 6.461371,-4.79186 7.404491,-7.18377 0.91904,-2.33974 0.80266,-4.06545 0.80266,-4.06545 0,0 -0.53778,-0.10033 -1.44077,-0.31705 -0.91101,-0.19263 -2.2073,-0.41336 -3.76846,-0.49764 -3.146412,-0.14047 -7.348312,0.23277 -11.786996,1.72169 -4.486843,1.62538 -7.107512,4.08953 -8.492092,6.18848 -1.392607,2.09493 -1.561165,3.83267 -1.561165,3.83267 z"
           fill="#99814A" />
        <path
           style="stroke-width:4.01328"
           id="path4"
           d="m 94.308548,217.49163 c 0,0 1.713669,0.43745 3.836692,1.8742 1.075558,0.69029 2.21934,1.75782 3.42734,2.92167 1.21602,1.12773 2.42,2.58455 3.50359,4.44671 2.17519,3.70827 2.72903,7.256 2.65277,9.66397 -0.0722,2.46816 -0.8187,4.06143 -0.8187,4.06143 0,0 -0.5418,-0.0241 -1.41268,-0.31303 -0.87088,-0.25685 -2.09091,-0.6943 -3.46346,-1.36452 -2.745076,-1.3003 -6.104188,-3.5678 -8.074707,-7.71351 -2.006638,-4.00525 -1.814001,-7.35232 -1.232076,-9.75226 0.593965,-2.3879 1.581231,-3.82466 1.581231,-3.82466 z"
           fill="#99814A" />
        <path
           style="stroke-width:4.01328"
           id="path6"
           d="m 57.197782,242.06492 c 0,0 2.098944,1.4809 5.470096,2.80528 1.689589,0.64213 3.648068,1.32439 5.859383,1.58926 2.243422,0.20468 4.659414,0.13645 7.079419,-0.40133 4.844025,-1.09161 7.280084,-3.43937 8.676704,-5.59852 1.3605,-2.11098 1.589257,-3.82866 1.589257,-3.82866 0,0 -0.501659,-0.21672 -1.352474,-0.58594 -0.854828,-0.36922 -2.08289,-0.83476 -3.599909,-1.22806 -1.517018,-0.3933 -3.327006,-0.71035 -5.357724,-0.80266 -2.030717,-0.0923 -4.153741,-0.22073 -6.5296,0.17257 -4.719613,0.72641 -7.773716,2.62469 -9.539558,4.42263 -1.793934,1.78591 -2.295594,3.45543 -2.295594,3.45543 z"
           fill="#99814A" />
        <path
           style="stroke-width:4.01328"
           id="path8"
           d="m 78.961779,209.34468 c 0,0 1.601298,0.76654 3.407272,2.58857 0.91904,0.89094 1.85012,2.13506 2.789227,3.53971 0.971213,1.34846 1.870187,3.00995 2.564484,5.0487 1.404646,4.06946 1.252142,7.64128 0.706336,9.99306 -0.557845,2.40796 -1.601297,3.81662 -1.601297,3.81662 0,0 -0.529752,-0.1204 -1.324381,-0.5739 -0.806669,-0.42942 -1.918346,-1.09161 -3.130356,-2.01868 -1.212009,-0.91904 -2.52435,-2.10697 -3.708267,-3.5678 -1.17589,-1.46886 -2.086904,-3.45944 -2.700935,-5.58648 -1.18793,-4.31427 -0.345142,-7.56502 0.690284,-9.79641 1.055491,-2.22335 2.307633,-3.44339 2.307633,-3.44339 z"
           fill="#99814A" />
        <path
           style="stroke-width:4.01328"
           id="path10"
           d="m 37.65714,226.12419 c 0,0 1.773868,1.85012 4.827971,3.79656 1.525045,0.9672 3.359112,1.96249 5.417923,2.721 2.163156,0.63009 4.547042,1.03141 7.027247,0.97523 4.964423,-0.13244 7.841942,-1.98657 9.595744,-3.76847 1.749788,-1.80597 2.307633,-3.43938 2.307633,-3.43938 0,0 -1.661496,-1.42471 -4.490856,-2.76514 -1.416686,-0.68226 -3.130355,-1.34044 -5.1089,-1.82203 -1.914333,-0.56587 -4.021303,-1.03944 -6.421243,-1.12372 -4.783825,-0.20468 -8.150964,1.07556 -10.237867,2.48823 -2.098944,1.39662 -2.917652,2.93772 -2.917652,2.93772 z"
           fill="#99814A" />
        <path
           style="stroke-width:4.01328"
           id="path12"
           d="m 65.392892,198.28008 c 0,0 1.424713,1.06352 2.857453,3.19056 0.718376,1.06753 1.440766,2.40796 2.030718,4.04136 0.694297,1.509 1.256155,3.30293 1.545111,5.43398 0.585939,4.2621 -0.240796,7.70549 -1.276222,9.95293 -1.019372,2.25144 -2.323687,3.43536 -2.323687,3.43536 0,0 -1.814001,-1.15984 -3.844718,-3.43135 -1.011346,-1.13576 -2.070851,-2.55244 -2.949758,-4.20993 -0.806669,-1.74176 -1.360501,-3.8086 -1.541099,-6.02794 -0.337115,-4.44671 1.119705,-7.46068 2.572511,-9.45126 1.464845,-1.98256 2.929691,-2.93371 2.929691,-2.93371 z"
           fill="#99814A" />
        <path
           style="stroke-width:4.01328"
           id="path14"
           d="m 21.780619,206.89658 c 0,0 1.38458,2.16316 4.009263,4.66343 1.312341,1.24412 2.925678,2.56449 4.803891,3.70827 1.954466,1.07154 4.258087,1.89025 6.694145,2.31566 4.900211,0.82673 8.094779,-0.4535 10.14155,-1.84611 2.038744,-1.40866 2.929691,-2.92969 2.929691,-2.92969 0,0 -1.356487,-1.72169 -3.872811,-3.58386 -1.260169,-0.93509 -2.825347,-1.91031 -4.675467,-2.76113 -1.725709,-0.95917 -3.744387,-1.79795 -6.072087,-2.35579 -4.659414,-1.11569 -8.23123,-0.50166 -10.530837,0.46955 -2.291581,0.94713 -3.427338,2.31967 -3.427338,2.31967 z"
           fill="#99814A" />
        <path
           style="stroke-width:4.01328"
           id="path16"
           d="m 54.372436,184.93995 c 0,0 1.195956,1.31234 2.191248,3.67215 0.50166,1.1799 0.959173,2.63271 1.220036,4.34638 0.349155,1.64945 0.589952,3.49556 0.453501,5.64266 -0.24481,4.29421 -1.70163,7.49279 -3.170489,9.52351 -1.460832,2.03874 -2.937718,2.91765 -2.937718,2.91765 0,0 -1.561164,-1.48491 -3.114302,-4.10558 -0.774563,-1.30833 -1.549125,-2.89759 -2.090917,-4.69152 -0.413368,-1.9023 -0.597978,-4.00525 -0.337115,-6.22058 0.525739,-4.43066 2.516324,-7.09547 4.346378,-8.78105 1.85012,-1.67755 3.439378,-2.30362 3.439378,-2.30362 z"
           fill="#99814A" />
        <path
           style="stroke-width:4.01328"
           id="path18"
           d="m 9.8772412,184.79949 c 0,0 0.1765838,0.61804 0.6983098,1.57721 0.50166,0.9672 1.264182,2.30764 2.315661,3.78452 1.047465,1.47287 2.383886,3.09023 4.005249,4.57112 1.649457,1.47288 3.800573,2.69693 6.104194,3.59189 4.659414,1.76182 8.046619,1.1197 10.32616,0.14849 2.271514,-0.97924 3.443391,-2.30362 3.443391,-2.30362 0,0 -1.003319,-1.94243 -3.122329,-4.25809 -1.047465,-1.16786 -2.444086,-2.39593 -4.033343,-3.628 -1.508992,-1.2682 -3.331019,-2.48422 -5.514242,-3.48352 -4.346378,-2.01066 -8.014512,-2.08691 -10.406425,-1.60532 -2.436059,0.47758 -3.8166258,1.60532 -3.8166258,1.60532 z"
           fill="#99814A" />
        <path
           style="stroke-width:4.01328"
           id="path20"
           d="m 46.133179,169.63331 c 0,0 0.172571,0.40535 0.493633,1.0876 0.296983,0.69029 0.662191,1.6936 0.923054,2.94173 0.264876,1.25215 0.433434,2.76114 0.361195,4.48685 -0.04415,1.71768 -0.108359,3.54372 -0.670217,5.62661 -1.067532,4.15374 -3.11029,7.00718 -4.944357,8.70881 -1.826041,1.71768 -3.447404,2.29158 -3.447404,2.29158 0,0 -1.248129,-1.75781 -2.275528,-4.62329 -0.497646,-1.43676 -1.003319,-3.11431 -1.119704,-5.01259 -0.04013,-1.94242 0.184611,-4.04137 0.866868,-6.16038 1.38458,-4.23802 3.812612,-6.43729 5.991821,-7.75766 2.139077,-1.28023 3.820639,-1.58926 3.820639,-1.58926 z"
           fill="#99814A" />
        <path
           style="stroke-width:4.01328"
           id="path22"
           d="m 2.5209058,160.77601 c 0,0 0.056186,0.63811 0.3772479,1.68157 0.3009958,1.05147 0.7906155,2.51632 1.5290583,4.16979 0.7424561,1.65347 1.7337354,3.49556 3.0300236,5.26943 1.3003015,1.77387 3.1985814,3.39122 5.2774584,4.72363 4.229993,2.64073 7.681411,2.67284 10.109443,2.16717 2.424019,-0.52173 3.828666,-1.58926 3.828666,-1.58926 0,0 -0.606005,-2.09894 -2.239409,-4.77981 -0.794628,-1.35248 -1.950452,-2.82134 -3.238714,-4.35039 -1.232075,-1.54511 -2.777187,-3.09424 -4.723626,-4.49889 -3.872811,-2.82534 -7.4486406,-3.61997 -9.8967392,-3.61997 -2.4761915,-0.008 -4.053409,0.82673 -4.053409,0.82673 z"
           fill="#99814A" />
        <path
           style="stroke-width:4.01328"
           id="path24"
           d="m 41.048358,153.03842 c 0,0 0.09632,0.42942 0.272903,1.15983 0.156518,0.73845 0.317049,1.78591 0.329089,3.06615 0.01605,1.27622 -0.116385,2.78922 -0.52574,4.46677 -0.409354,1.68558 -0.802655,3.44339 -1.765841,5.38582 -1.85012,3.85676 -4.414604,6.2567 -6.545654,7.56503 -2.127036,1.32438 -3.832679,1.57721 -3.832679,1.57721 0,0 -0.88292,-1.9665 -1.336421,-4.98047 -0.200663,-1.50899 -0.393301,-3.24273 -0.112371,-5.137 0.341128,-1.91032 0.975226,-3.92097 2.054797,-5.86339 2.187236,-3.88485 5.008569,-5.56642 7.392455,-6.42927 2.359807,-0.84279 4.069462,-0.81068 4.069462,-0.81068 z"
           fill="#99814A" />
        <path
           style="stroke-width:4.01328"
           id="path26"
           d="m 5.6824042e-4,135.68501 c 0,0 -0.0481593204,2.56448 0.74245611958,6.09617 0.39330104,1.75781 0.99930584,3.76044 1.91834604,5.75102 0.9631863,1.98256 2.4761915,3.94505 4.2580862,5.65872 3.6239884,3.42734 6.9991534,4.13769 9.4793584,4.12164 2.476192,-0.0321 4.065449,-0.79865 4.065449,-0.79865 0,0 -0.176584,-2.18322 -1.248129,-5.13298 -0.517712,-1.47688 -1.332408,-3.15042 -2.331713,-4.90021 -0.894961,-1.75781 -2.102957,-3.57984 -3.728334,-5.33765 -3.2507539,-3.52366 -6.5336139,-5.00055 -9.0138186,-5.47411 -2.4761915,-0.49364 -4.14170115958,0.0161 -4.14170115958,0.0161 z"
           fill="#99814A" />
        <path
           style="stroke-width:4.01328"
           id="path28"
           d="m 39.29857,135.61277 c 0,0 0.264876,1.75782 -0.216717,4.27414 -0.24481,1.26418 -0.670217,2.72501 -1.412673,4.29822 -0.694297,1.56919 -1.45682,3.22266 -2.777188,4.93232 -2.580536,3.42332 -5.566414,5.26541 -7.91418,6.12827 -2.347767,0.87891 -4.065449,0.78259 -4.065449,0.78259 0,0 -0.47758,-2.09895 -0.325076,-5.14101 0.09231,-1.52103 0.276916,-3.25878 0.886934,-5.06074 0.718377,-1.80598 1.737749,-3.6561 3.186542,-5.35371 2.901598,-3.38319 6.056034,-4.48684 8.492092,-4.86409 2.436059,-0.36521 4.145715,0.004 4.145715,0.004 z"
           fill="#99814A" />
        <path
           style="stroke-width:4.01328"
           id="path30"
           d="m 2.4005075,110.87092 c 0,0 -0.5578454,2.51231 -0.4896197,6.13229 0.052173,1.80597 0.1926372,3.88084 0.770549,6.0159 0.682257,2.14309 1.6775495,4.34638 3.1102891,6.36907 2.8694926,4.04538 6.0319541,5.40187 8.4640001,5.8634 2.432045,0.44547 4.141701,0 4.141701,0 0,0 0.264876,-2.17921 -0.192637,-5.27345 -0.228757,-1.55314 -0.638111,-3.34306 -1.340435,-5.25739 -0.66219,-1.91032 -1.380567,-3.91696 -2.652775,-5.95972 -2.480205,-4.07748 -5.4098968,-6.16038 -7.7456236,-7.10751 -2.3317136,-0.95917 -4.0654489,-0.78259 -4.0654489,-0.78259 z"
           fill="#99814A" />
        <path
           style="stroke-width:4.01328"
           id="path32"
           d="m 40.972106,118.38378 c 0,0 -0.0923,1.76985 -1.079571,4.13768 -0.47758,1.19195 -1.248129,2.52837 -2.215329,3.93301 -0.862854,1.4207 -2.042757,2.88956 -3.652081,4.31829 -3.218648,2.86548 -6.513548,4.09755 -8.985726,4.49086 -2.476191,0.40935 -4.141701,-0.0161 -4.141701,-0.0161 0,0 -0.04415,-2.15111 0.718376,-5.10488 0.381262,-1.47689 0.963187,-3.1424 1.846107,-4.79186 0.931081,-1.64945 2.403953,-3.25878 4.133675,-4.63934 3.523657,-2.76114 6.846649,-3.23069 9.310801,-3.12635 2.464152,0.10836 4.065449,0.79865 4.065449,0.79865 z"
           fill="#99814A" />
        <path
           style="stroke-width:4.01328"
           id="path34"
           d="m 9.612365,86.815344 c 0,0 -1.0474651,2.35178 -1.6936026,5.91557 -0.2929692,1.789921 -0.610018,3.836692 -0.4053409,6.068073 0.2407966,2.243423 0.7785756,4.599213 1.7778814,6.866713 2.0307181,4.53501 4.7958651,6.45736 7.1877781,7.4045 2.33974,0.91904 4.065449,0.80265 4.065449,0.80265 0,0 0.100332,-0.53778 0.317048,-1.44076 0.192638,-0.91102 0.409355,-2.2073 0.497647,-3.76847 0.144478,-3.14239 -0.228757,-7.34831 -1.717683,-11.786992 C 18.016166,92.389785 15.552014,89.769116 13.45307,88.384535 11.350114,86.983902 9.612365,86.815344 9.612365,86.815344 Z"
           fill="#99814A" />
        <path
           style="stroke-width:4.01328"
           id="path36"
           d="m 45.956595,101.75677 c 0,0 -0.44146,1.71768 -1.8742,3.83669 -0.68627,1.07958 -1.753802,2.22336 -2.921665,3.42734 -1.127731,1.21602 -2.58455,2.42001 -4.44671,3.49958 -3.708267,2.17921 -7.256004,2.72903 -9.663969,2.65679 -2.468165,-0.0722 -4.061436,-0.81871 -4.061436,-0.81871 0,0 0.02007,-0.54179 0.309022,-1.41267 0.260863,-0.8749 0.694297,-2.09092 1.364514,-3.45945 1.304315,-2.74909 3.567803,-6.10419 7.713517,-8.08274 4.00525,-2.006634 7.352322,-1.809984 9.748248,-1.23207 2.395926,0.59798 3.832679,1.58524 3.832679,1.58524 z"
           fill="#99814A" />
        <path
           style="stroke-width:4.01328"
           id="path38"
           d="m 176.63288,253.83586 c 0,0 -2.35178,1.04747 -5.91958,1.69762 -1.78591,0.28896 -3.83268,0.606 -6.06807,0.40133 -2.24342,-0.2408 -4.5952,-0.77456 -6.86672,-1.77788 -4.53099,-2.03072 -6.45736,-4.79186 -7.40048,-7.18377 -0.92305,-2.33974 -0.80667,-4.06545 -0.80667,-4.06545 0,0 0.54179,-0.10033 1.44077,-0.31705 0.91101,-0.19263 2.21131,-0.41336 3.76847,-0.49764 3.14239,-0.14047 7.35232,0.23277 11.791,1.72169 4.48283,1.62538 7.1035,4.08953 8.48808,6.18848 1.40063,2.09493 1.5732,3.83267 1.5732,3.83267 z"
           fill="#99814A" />
        <path
           style="stroke-width:4.01328"
           id="path40"
           d="m 161.68744,217.49163 c 0,0 -1.71768,0.43745 -3.83268,1.8742 -1.08358,0.69029 -2.22736,1.75782 -3.42733,2.92167 -1.21603,1.12773 -2.42402,2.58455 -3.50359,4.44671 -2.17921,3.70827 -2.72903,7.256 -2.65679,9.66397 0.0722,2.46816 0.82272,4.06143 0.82272,4.06143 0,0 0.54179,-0.0241 1.41267,-0.31303 0.87088,-0.25685 2.09092,-0.6943 3.46346,-1.36452 2.74508,-1.3003 6.10018,-3.5678 8.07471,-7.71351 2.00664,-4.00525 1.80999,-7.35232 1.23208,-9.75226 -0.59798,-2.3879 -1.58525,-3.82466 -1.58525,-3.82466 z"
           fill="#99814A" />
        <path
           style="stroke-width:4.01328"
           id="path42"
           d="m 198.80222,242.06492 c 0,0 -2.09894,1.4809 -5.47009,2.80528 -1.69361,0.64213 -3.65208,1.32439 -5.8634,1.58926 -2.24342,0.20468 -4.6554,0.13645 -7.07942,-0.40133 -4.84402,-1.09161 -7.28008,-3.43937 -8.6767,-5.59852 -1.35649,-2.11098 -1.58525,-3.82866 -1.58525,-3.82866 0,0 0.50166,-0.21672 1.35649,-0.58594 0.85483,-0.36922 2.07888,-0.83476 3.5959,-1.22806 1.51702,-0.3933 3.32299,-0.71035 5.36173,-0.80266 2.03072,-0.0923 4.15374,-0.22073 6.5296,0.17257 4.71962,0.72641 7.76971,2.62469 9.53956,4.42263 1.7819,1.78591 2.29158,3.45543 2.29158,3.45543 z"
           fill="#99814A" />
        <path
           style="stroke-width:4.01328"
           id="path44"
           d="m 177.03421,209.34468 c 0,0 -1.59728,0.76654 -3.41128,2.58857 -0.91904,0.89094 -1.85012,2.13506 -2.7812,3.53971 -0.97122,1.34846 -1.8742,3.00995 -2.57251,5.0487 -1.40465,4.06946 -1.25215,7.64128 -0.70634,9.99306 0.55785,2.40796 1.59728,3.81662 1.59728,3.81662 0,0 0.53377,-0.1204 1.32439,-0.5739 0.80666,-0.42942 1.92235,-1.09161 3.12634,-2.01868 1.21602,-0.91904 2.53238,-2.10697 3.70827,-3.5678 1.17588,-1.46886 2.0869,-3.45944 2.70494,-5.58648 1.19195,-4.31427 0.34514,-7.56502 -0.69028,-9.79641 -1.04747,-2.22335 -2.29961,-3.44339 -2.29961,-3.44339 z"
           fill="#99814A" />
        <path
           style="stroke-width:4.01328"
           id="path46"
           d="m 218.34287,226.12419 c 0,0 -1.77789,1.85012 -4.82798,3.79656 -1.52905,0.9672 -3.36312,1.96249 -5.41792,2.721 -2.16315,0.63009 -4.55507,1.03141 -7.03126,0.97523 -4.96844,-0.13244 -7.83793,-1.98657 -9.59574,-3.76847 -1.74979,-1.80597 -2.30362,-3.43938 -2.30362,-3.43938 0,0 1.66149,-1.42471 4.49085,-2.76514 1.41268,-0.68226 3.12635,-1.34044 5.1089,-1.82203 1.91434,-0.56587 4.02131,-1.03944 6.42125,-1.12372 4.77981,-0.20468 8.15096,1.07556 10.23786,2.48823 2.09493,1.39662 2.91766,2.93772 2.91766,2.93772 z"
           fill="#99814A" />
        <path
           style="stroke-width:4.01328"
           id="path48"
           d="m 190.6031,198.28008 c 0,0 -1.42471,1.06352 -2.85344,3.19056 -0.72239,1.06753 -1.44077,2.40796 -2.03072,4.04136 -0.69831,1.509 -1.26017,3.30293 -1.54511,5.43398 -0.58594,4.2621 0.23678,7.70549 1.2682,9.95293 1.01937,2.25144 2.3277,3.43135 2.3277,3.43135 0,0 1.80998,-1.15984 3.8407,-3.43135 1.01135,-1.13576 2.07888,-2.55245 2.95377,-4.20993 0.80667,-1.74176 1.35649,-3.8086 1.53709,-6.02794 0.33711,-4.44671 -1.11971,-7.46068 -2.57251,-9.45127 -1.46083,-1.97854 -2.92568,-2.92969 -2.92568,-2.92969 z"
           fill="#99814A" />
        <path
           style="stroke-width:4.01328"
           id="path50"
           d="m 234.21537,206.89658 c 0,0 -1.38859,2.16316 -4.01327,4.66343 -1.30833,1.24412 -2.92568,2.56449 -4.79587,3.70827 -1.95848,1.07154 -4.25808,1.89025 -6.70217,2.31566 -4.90021,0.82673 -8.09076,-0.4535 -10.13352,-1.84611 -2.03875,-1.40866 -2.92969,-2.92969 -2.92969,-2.92969 0,0 1.35648,-1.72169 3.87281,-3.58386 1.26017,-0.93509 2.82133,-1.91031 4.67948,-2.76113 1.72571,-0.95917 3.74037,-1.79795 6.06807,-2.35579 4.66343,-1.11569 8.23123,-0.50166 10.52683,0.46955 2.29158,0.94713 3.42733,2.31967 3.42733,2.31967 z"
           fill="#99814A" />
        <path
           style="stroke-width:4.01328"
           id="path52"
           d="m 201.62356,184.93995 c 0,0 -1.19195,1.31234 -2.18724,3.67215 -0.50166,1.1799 -0.96319,2.63271 -1.22405,4.34638 -0.35317,1.64945 -0.58594,3.49556 -0.4535,5.64266 0.24481,4.29421 1.70163,7.49279 3.16648,9.52351 1.46484,2.03874 2.93771,2.91765 2.93771,2.91765 0,0 1.56117,-1.48491 3.11832,-4.10558 0.77456,-1.30833 1.54511,-2.89759 2.0869,-4.69152 0.41738,-1.9023 0.602,-4.00525 0.34515,-6.22058 -0.52574,-4.43066 -2.51633,-7.09547 -4.3504,-8.78105 -1.85012,-1.67755 -3.43937,-2.30362 -3.43937,-2.30362 z"
           fill="#99814A" />
        <path
           style="stroke-width:4.01328"
           id="path54"
           d="m 246.12276,184.79949 c 0,0 -0.18059,0.61804 -0.69831,1.57721 -0.50166,0.9672 -1.26819,2.30764 -2.31967,3.78452 -1.05148,1.47287 -2.38389,3.09023 -4.00525,4.57112 -1.64544,1.47288 -3.80057,2.69693 -6.10018,3.59189 -4.66343,1.76182 -8.05063,1.1197 -10.33017,0.14849 -2.27152,-0.97924 -3.43938,-2.30362 -3.43938,-2.30362 0,0 1.00332,-1.94243 3.11832,-4.25809 1.05147,-1.16786 2.44408,-2.39593 4.03735,-3.628 1.50498,-1.2682 3.32299,-2.48422 5.51023,-3.48352 4.35039,-2.01066 8.0105,-2.08691 10.40241,-1.60532 2.44409,0.47758 3.82465,1.60532 3.82465,1.60532 z"
           fill="#99814A" />
        <path
           style="stroke-width:4.01328"
           id="path56"
           d="m 209.86281,169.63331 c 0,0 -0.17257,0.40535 -0.4856,1.0876 -0.29699,0.69029 -0.66621,1.6936 -0.92306,2.94173 -0.26487,1.25215 -0.43744,2.76114 -0.36119,4.48685 0.0401,1.71768 0.10033,3.54372 0.6662,5.62661 1.06753,4.15374 3.11029,7.00718 4.94436,8.70881 1.82604,1.71768 3.4474,2.29158 3.4474,2.29158 0,0 1.24813,-1.75781 2.27152,-4.62329 0.49363,-1.43676 1.00332,-3.11431 1.1197,-5.01259 0.0401,-1.94242 -0.1806,-4.04137 -0.86285,-6.16038 -1.3886,-4.23802 -3.81663,-6.43729 -5.99584,-7.75766 -2.13907,-1.28023 -3.82064,-1.58926 -3.82064,-1.58926 z"
           fill="#99814A" />
        <path
           style="stroke-width:4.01328"
           id="path58"
           d="m 253.47509,160.77601 c 0,0 -0.0562,0.63811 -0.37725,1.68157 -0.29698,1.05147 -0.79062,2.51632 -1.52906,4.16979 -0.73844,1.65347 -1.73374,3.49556 -3.03404,5.26943 -1.3003,1.77387 -3.19858,3.39122 -5.27344,4.72363 -4.23401,2.64073 -7.68141,2.67284 -10.11346,2.16717 -2.42402,-0.52173 -3.82465,-1.58926 -3.82465,-1.58926 0,0 0.60199,-2.09894 2.23539,-4.77981 0.79865,-1.35248 1.95046,-2.82134 3.23872,-4.35039 1.23207,-1.54511 2.7812,-3.09424 4.72764,-4.49889 3.87281,-2.82534 7.44463,-3.61997 9.90075,-3.61997 2.47218,-0.008 4.0494,0.82673 4.0494,0.82673 z"
           fill="#99814A" />
        <path
           style="stroke-width:4.01328"
           id="path60"
           d="m 214.94763,153.03842 c 0,0 -0.0923,0.42942 -0.2729,1.15983 -0.15652,0.73845 -0.31303,1.78591 -0.32909,3.06615 -0.0161,1.28023 0.11639,2.78922 0.52574,4.46677 0.40936,1.68558 0.80667,3.44339 1.76986,5.38582 1.85012,3.85676 4.4146,6.2567 6.54565,7.56503 2.12302,1.32438 3.82465,1.57721 3.82465,1.57721 0,0 0.88694,-1.9665 1.34044,-4.98047 0.19665,-1.50899 0.3933,-3.24273 0.10835,-5.137 -0.34514,-1.91032 -0.97121,-3.92097 -2.05479,-5.86339 -2.18724,-3.88485 -5.00857,-5.56642 -7.40048,-6.42927 -2.34777,-0.84279 -4.05743,-0.81068 -4.05743,-0.81068 z"
           fill="#99814A" />
        <path
           style="stroke-width:4.01328"
           id="path62"
           d="m 255.99944,135.68501 c 0,0 0.0482,2.56448 -0.74647,6.09617 -0.3933,1.75781 -0.9953,3.76044 -1.92236,5.75102 -0.95516,1.98256 -2.46817,3.94505 -4.25809,5.65872 -3.61997,3.42734 -6.99915,4.13769 -9.47534,4.12164 -2.47619,-0.0321 -4.06947,-0.79865 -4.06947,-0.79865 0,0 0.1806,-2.18322 1.24813,-5.13298 0.51772,-1.47688 1.33241,-3.15042 2.33573,-4.90021 0.89496,-1.75781 2.09894,-3.57984 3.72432,-5.33765 3.25477,-3.52366 6.53763,-5.00055 9.01382,-5.47411 2.4802,-0.49364 4.14973,0.0161 4.14973,0.0161 z"
           fill="#99814A" />
        <path
           style="stroke-width:4.01328"
           id="path64"
           d="m 216.69742,135.61277 c 0,0 -0.26487,1.75782 0.22073,4.27414 0.24481,1.26418 0.67423,2.72501 1.41268,4.29822 0.69028,1.56919 1.45681,3.22266 2.77317,4.93232 2.58054,3.42332 5.56641,5.26541 7.91819,6.12827 2.34376,0.87891 4.06947,0.78259 4.06947,0.78259 0,0 0.46955,-2.09895 0.32106,-5.14101 -0.0923,-1.52103 -0.2729,-3.25878 -0.88694,-5.06074 -0.72239,-1.80598 -1.74176,-3.6561 -3.19055,-5.35371 -2.9016,-3.38319 -6.06005,-4.48684 -8.48808,-4.86409 -2.44409,-0.36521 -4.14973,0.004 -4.14973,0.004 z"
           fill="#99814A" />
        <path
           style="stroke-width:4.01328"
           id="path66"
           d="m 253.5995,110.87092 c 0,0 0.55784,2.51231 0.4856,6.13229 -0.0482,1.80597 -0.18862,3.88084 -0.76653,6.0159 -0.68226,2.14309 -1.67755,4.34638 -3.11029,6.36907 -2.86949,4.04538 -6.03597,5.40187 -8.464,5.8634 -2.43606,0.44547 -4.14571,0 -4.14571,0 0,0 -0.26488,-2.17921 0.19665,-5.27345 0.22875,-1.55314 0.63409,-3.34306 1.34043,-5.25739 0.65818,-1.91032 1.38057,-3.91696 2.64876,-5.95972 2.48422,-4.07748 5.41793,-6.16038 7.75365,-7.10751 2.31968,-0.95917 4.06144,-0.78259 4.06144,-0.78259 z"
           fill="#99814A" />
        <path
           style="stroke-width:4.01328"
           id="path68"
           d="m 215.0279,118.38378 c 0,0 0.0923,1.76985 1.07556,4.13768 0.47758,1.19195 1.24813,2.52837 2.21934,3.93301 0.86285,1.4207 2.03874,2.88956 3.65208,4.31829 3.21463,2.86548 6.50552,4.09755 8.98171,4.49086 2.47619,0.40935 4.14572,-0.0161 4.14572,-0.0161 0,0 0.0401,-2.15111 -0.72239,-5.10488 -0.37725,-1.47689 -0.96319,-3.1424 -1.85012,-4.79186 -0.92306,-1.64945 -2.39994,-3.25878 -4.12966,-4.63934 -3.52767,-2.76114 -6.84264,-3.23069 -9.31081,-3.12635 -2.46415,0.10836 -4.06143,0.79865 -4.06143,0.79865 z"
           fill="#99814A" />
        <path
           style="stroke-width:4.01328"
           id="path70"
           d="m 246.38764,86.815344 c 0,0 1.04345,2.35178 1.6936,5.91557 0.28896,1.789921 0.61002,3.836692 0.40936,6.068073 -0.24481,2.243423 -0.78259,4.599213 -1.77788,6.866713 -2.03072,4.53501 -4.79587,6.45736 -7.18778,7.4045 -2.34376,0.91904 -4.06946,0.80265 -4.06946,0.80265 0,0 -0.10034,-0.53778 -0.31304,-1.44076 -0.19665,-0.91102 -0.41738,-2.2073 -0.50166,-3.76847 -0.14046,-3.14239 0.23678,-7.34831 1.72571,-11.786992 1.62136,-4.486843 4.08551,-7.107512 6.18446,-8.492093 2.09493,-1.400633 3.83669,-1.569191 3.83669,-1.569191 z"
           fill="#99814A" />
        <path
           style="stroke-width:4.01328"
           id="path72"
           d="m 210.0394,101.75677 c 0,0 0.43744,1.71768 1.8742,3.83669 0.69028,1.07958 1.75781,2.22336 2.92568,3.42734 1.12773,1.21602 2.58053,2.42001 4.44269,3.49958 3.70827,2.17921 7.26002,2.72903 9.66397,2.65679 2.46817,-0.0722 4.06144,-0.81871 4.06144,-0.81871 0,0 -0.0241,-0.54179 -0.31304,-1.41267 -0.25685,-0.8749 -0.69028,-2.09092 -1.36451,-3.45945 -1.3003,-2.74909 -3.56781,-6.10419 -7.71352,-8.08274 -4.00525,-2.006634 -7.35232,-1.809984 -9.75226,-1.23207 -2.3879,0.59798 -3.82465,1.58524 -3.82465,1.58524 z"
           fill="#99814A" />
      </g>
      <path
         d="m 39.80274,4.444691 a 14.577778,14.577778 0 0 0 -14.4694,14.577405 14.577778,14.577778 0 0 0 2.84892,8.657351 l -13.61312,13.276193 0.0377,4.613156 2.37092,0.03669 14.47301,-14.711248 a 14.577778,14.577778 0 0 0 8.46047,2.705779 14.577778,14.577778 0 0 0 14.57741,-14.577921 14.577778,14.577778 0 0 0 -14.57741,-14.577405 14.577778,14.577778 0 0 0 -0.10852,0 z m 0.0713,3.611666 a 10.966109,10.966109 0 0 1 0.0372,0 A 10.966109,10.966109 0 0 1 50.87697,19.022096 10.966109,10.966109 0 0 1 39.91123,29.988352 10.966109,10.966109 0 0 1 28.94498,19.022096 10.966109,10.966109 0 0 1 39.87403,8.056357 Z"
         style="fill:#99814a;fill-opacity:1;stroke:none;stroke-width:0.264583;stroke-opacity:1"
         id="path1884" />
      <g
         style="fill:#99814a;fill-opacity:1"
         transform="matrix(0.30266526,0,0,0.30266526,29.605321,8.9516464)"
         id="g3021">
        <path
           d="m 11.424975,17.700351 c 0.07249,-0.974868 0.117358,-1.024275 1.260227,-1.387693 2.051084,-0.652218 3.826018,-2.918206 3.826018,-4.884526 0,-1.205743 0.345224,-1.272426 6.587489,-1.272426 6.234917,0 6.150496,0.01684 6.462706,-1.2894877 0.465392,-1.9472737 3.303631,-3.6026764 5.360183,-3.1263268 1.7871,0.4139372 3.589486,2.1649667 3.589486,3.4872077 0,0.8558968 0.498499,0.9286068 6.366518,0.9286068 6.562838,0 6.399093,-0.04884 6.693229,1.996478 0.17705,1.231146 1.196494,2.856692 2.206628,3.518556 0.335224,0.219649 1.079902,0.537594 1.654839,0.706545 0.959311,0.281902 1.051594,0.380685 1.121323,1.200296 0.09533,1.120537 -0.295367,1.304776 -1.856654,0.875526 -2.220514,-0.610494 -3.805707,-1.98789 -4.757751,-4.134072 -0.270278,-0.609286 -0.571664,-1.272791 -0.669749,-1.474457 -0.155048,-0.318783 -2.106042,-0.37548 -14.940523,-0.434181 -8.119203,-0.03713 -15.000923,-0.0097 -15.292711,0.06088 -0.359028,0.08689 -0.582728,0.385279 -0.69202,0.923067 -0.235915,1.160862 -1.710514,3.215302 -2.848225,3.968203 -1.146491,0.758712 -2.700144,1.348661 -3.55175,1.348661 -0.545899,0 -0.588292,-0.08253 -0.519263,-1.010857 z M 36.190228,9.9090739 c 0.481205,-0.7786055 -0.871092,-2.0022445 -2.212766,-2.0022445 -1.274812,0 -2.650184,1.2575078 -2.189911,2.0022445 0.198811,0.3216831 4.203866,0.3216831 4.402677,0 z"
           style="fill:#99814a;fill-opacity:1;stroke-width:0.244443"
           id="path3002" />
        <path
           id="path3000"
           d="m 54.522095,26.44577 c -1.007606,-0.465711 -1.750749,-1.327988 -2.170958,-2.518986 -0.409459,-1.160533 -0.196005,-1.548931 0.851265,-1.548931 0.495517,0 0.786272,0.213514 1.165103,0.855583 0.277643,0.47057 0.898076,1.043119 1.378739,1.272332 0.831313,0.396426 0.915052,0.394602 1.717221,-0.03739 0.463811,-0.249778 1.064622,-0.829268 1.335135,-1.287755 0.421647,-0.714638 0.605106,-0.82269 1.285427,-0.757079 0.75451,0.07277 0.790847,0.122434 0.737981,1.008748 -0.05872,0.984462 -0.577149,1.807653 -1.68944,2.682581 -0.841356,0.66181 -3.484138,0.851486 -4.610473,0.3309 z"
           style="fill:#99814a;fill-opacity:1;stroke-width:0.244443" />
        <path
           id="path2998"
           d="M 9.0557111,26.43136 C 7.5249188,25.748078 5.9514568,23.113065 6.7660714,22.596992 c 0.6512835,-0.412599 1.649103,-0.242858 1.9449212,0.330855 0.4841221,0.938911 1.232116,1.61814 1.9573814,1.777435 0.893457,0.196236 2.056448,-0.47041 2.441229,-1.399353 0.309241,-0.746573 1.09637,-1.072015 1.942952,-0.80332 0.442139,0.140329 0.507064,0.294385 0.383802,0.910694 -0.40261,2.013053 -2.202478,3.372711 -4.441168,3.354952 -0.663382,-0.0053 -1.536147,-0.156865 -1.9394779,-0.336895 z"
           style="fill:#99814a;fill-opacity:1;stroke-width:0.244443" />
        <path
           id="path2996"
           d="m 41.688842,22.133408 v -6.111073 h 0.977771 0.977772 v 6.111073 6.111073 h -0.977772 -0.977771 z"
           style="fill:#99814a;fill-opacity:1;stroke-width:0.244443" />
        <path
           id="path2994"
           d="m 24.204293,27.948035 c -0.06855,-0.178627 -0.09504,-2.907484 -0.05887,-6.064128 l 0.06575,-5.739351 h 1.099993 1.099993 v 5.988852 5.988851 l -1.041119,0.07527 c -0.697203,0.05041 -1.082288,-0.03201 -1.165747,-0.249498 z"
           style="fill:#99814a;fill-opacity:1;stroke-width:0.244443" />
        <path
           id="path2992"
           d="m 17.768387,33.404556 c -0.34549,-0.218911 -0.206941,-1.081447 0.269339,-1.676764 0.185363,-0.23169 1.943592,-0.305553 7.27344,-0.305553 5.565004,0 7.085413,-0.06799 7.299919,-0.326456 0.182919,-0.220405 0.291901,-2.900462 0.335483,-8.249949 l 0.06455,-7.923493 h 0.977772 0.977771 l 0.06455,7.923493 c 0.04358,5.349487 0.152564,8.029544 0.335484,8.249949 0.21433,0.258249 1.717309,0.326456 7.193767,0.326456 6.876754,0 6.925364,0.0036 7.303358,0.543277 0.536391,0.765805 0.472696,1.330547 -0.169472,1.502639 -0.866384,0.232182 -31.555641,0.171047 -31.925961,-0.0636 z"
           style="fill:#99814a;fill-opacity:1;stroke-width:0.244443" />
        <path
           id="path2990"
           d="m 28.97781,42.911056 c 0,-0.134443 0.109999,-0.244443 0.244443,-0.244443 0.14744,0 0.244442,-1.018513 0.244442,-2.56665 0,-1.548138 -0.097,-2.566651 -0.244442,-2.566651 -0.134444,0 -0.244443,-0.109999 -0.244443,-0.244443 0,-0.143791 0.85555,-0.244443 2.077764,-0.244443 2.028549,0 2.077765,0.01386 2.077765,0.584955 0,0.321726 -0.164999,0.648269 -0.366664,0.725658 -0.22335,0.08571 -0.366664,4.89e-4 -0.366664,-0.21829 0,-0.23592 -0.251408,-0.358994 -0.733329,-0.358994 -0.69646,0 -0.733329,0.05077 -0.733329,1.009755 v 1.009754 l 0.85555,-0.138836 c 0.776527,-0.126013 0.85555,-0.08523 0.85555,0.441535 0,0.526764 -0.07902,0.567547 -0.85555,0.441535 l -0.85555,-0.138837 v 1.009755 c 0,0.992753 0.01454,1.009755 0.863221,1.009755 0.541812,0 0.915612,-0.136524 1.003925,-0.366665 0.23839,-0.621232 0.577283,-0.405983 0.577283,0.366665 v 0.733328 h -2.199986 c -1.303695,0 -2.199986,-0.09959 -2.199986,-0.244443 z"
           style="fill:#99814a;fill-opacity:1;stroke-width:0.244443" />
        <path
           id="path2988"
           d="m 45.111043,43.054764 c 0,-0.122627 0.797495,-1.276615 1.772211,-2.564419 0.974716,-1.287801 1.808878,-2.424964 1.853691,-2.527024 0.04482,-0.102062 -0.58768,-0.185566 -1.405547,-0.185566 -0.82839,0 -1.487027,0.108269 -1.487027,0.244443 0,0.134443 -0.164999,0.244443 -0.366664,0.244443 -0.228146,0 -0.366664,-0.230862 -0.366664,-0.611108 v -0.611107 h 2.811093 c 1.546102,0 2.811094,0.09326 2.811094,0.207249 0,0.113986 -0.836665,1.296478 -1.859255,2.627761 l -1.859252,2.420513 1.54932,0.07425 c 0.93334,0.04473 1.583458,-0.02816 1.635182,-0.183332 0.172955,-0.518864 0.534005,-0.23852 0.534005,0.414639 v 0.672218 h -2.811094 c -1.546101,0 -2.811093,-0.100332 -2.811093,-0.222957 z"
           style="fill:#99814a;fill-opacity:1;stroke-width:0.244443" />
        <path
           id="path2986"
           d="m 38.093487,42.934802 c -1.096678,-0.511307 -1.78239,-1.646509 -1.78239,-2.950764 0,-0.959573 0.953973,-2.253822 2.060899,-2.796007 0.840328,-0.411605 1.087675,-0.431872 2.068661,-0.169499 1.162784,0.310998 1.48261,0.592229 1.488885,1.309219 0.0049,0.565157 -0.371372,0.541547 -0.974029,-0.06111 -1.186228,-1.186228 -3.422201,0.01161 -3.422201,1.833322 0,1.980269 2.444422,3.077766 3.811088,1.7111 0.336109,-0.336109 0.661105,-0.611107 0.722216,-0.611107 0.306373,0 0.07125,1.674092 -0.252575,1.798354 -1.108175,0.425248 -2.731684,0.397535 -3.720554,-0.06351 z"
           style="fill:#99814a;fill-opacity:1;stroke-width:0.244443" />
        <path
           d="m 16.755663,43.00008 c 0,-0.154637 0.164999,-0.344476 0.366665,-0.421864 0.290553,-0.111496 0.366664,-0.625926 0.366664,-2.478253 0,-1.852328 -0.07611,-2.366758 -0.366664,-2.478253 -0.816593,-0.313356 -0.278885,-0.577284 1.176122,-0.577284 1.21473,0 1.656543,0.105981 2.077765,0.498409 1.138086,1.060289 0.349231,3.168235 -1.185645,3.168235 -0.661881,0 -0.723806,0.07196 -0.723806,0.841123 0,0.462618 0.109999,0.909108 0.244443,0.992199 0.520459,0.32166 0.199229,0.565475 -0.855551,0.649365 -0.716845,0.05701 -1.099993,-0.01044 -1.099993,-0.193677 z m 2.639984,-3.31567 c 0.449071,-0.449071 0.34903,-1.37076 -0.179485,-1.653613 -0.712877,-0.381519 -0.749398,-0.340245 -0.749398,0.846951 0,1.128102 0.325111,1.410433 0.928883,0.806662 z"
           style="fill:#99814a;fill-opacity:1;stroke-width:0.244443"
           id="path2982" />
        <path
           id="path2980"
           d="m 24.019673,44.471397 c -0.07346,-0.07346 0.02208,-0.506051 0.212303,-0.961319 0.403542,-0.965813 0.484133,-5.618014 0.101418,-5.854545 -0.521297,-0.322178 -0.203617,-0.611119 0.672218,-0.611408 l 0.916661,-2.44e-4 -0.0839,2.750284 c -0.04661,1.527831 -0.227549,3.094652 -0.407081,3.525047 -0.312895,0.750108 -1.13924,1.424619 -1.411617,1.152241 z"
           style="fill:#99814a;fill-opacity:1;stroke-width:0.244443" />
        <path
           d="m 39.361383,59.922006 c 6.304995,-2.118086 11.713346,-5.617098 14.169007,-9.166847 1.374728,-1.987218 2.800153,-1.847013 -19.49764,-1.917806 -19.193212,-0.06094 -19.709247,-0.05045 -19.953232,0.40544 -0.510094,0.95312 2.431196,4.183061 5.976125,6.562611 2.818202,1.891729 7.824554,4.088586 11.244374,4.934188 1.959394,0.48449 5.148096,0.16109 8.061366,-0.817586 z m -11.729176,-3.16384 c 0.207222,-0.31626 0.740445,-0.770872 1.18494,-1.010248 l 0.808172,-0.435231 -0.445976,-0.874756 c -0.536388,-1.052097 -0.582065,-1.993601 -0.09672,-1.993601 0.192093,0 0.742089,0.370485 1.222214,0.823304 0.682443,0.643628 0.872955,1.012688 0.872955,1.691107 0,0.477292 -0.06833,1.045869 -0.151843,1.263504 -0.235619,0.614011 -1.422208,1.110944 -2.652746,1.110944 -1.117395,0 -1.117642,-1.91e-4 -0.741,-0.575023 z m 10.259282,0.342431 c -0.802435,-0.325261 -1.120702,-0.884798 -1.136056,-1.997268 -0.01234,-0.894981 0.111014,-1.158381 0.867035,-1.851222 1.191947,-1.092337 1.602846,-1.064803 1.44629,0.09692 -0.06705,0.49758 -0.281415,1.148116 -0.476355,1.445633 -0.320064,0.48848 -0.310115,0.55501 0.102587,0.685997 0.251366,0.07978 0.829393,0.529238 1.284506,0.998794 l 0.827476,0.853741 -1.209054,-0.0155 c -0.66498,-0.0085 -1.432873,-0.106215 -1.706429,-0.217097 z m -4.574817,-0.275874 c -0.491389,-0.286208 -0.574119,-1.4474 -0.134444,-1.887075 0.161332,-0.161332 0.52433,-0.293331 0.806662,-0.293331 1.045841,0 1.492028,1.284146 0.715868,2.060304 -0.441919,0.441919 -0.78465,0.471572 -1.388086,0.120102 z m -9.96105,-1.248199 c 0,-0.402069 0.815825,-1.213419 1.655761,-1.64668 0.497844,-0.256799 0.516951,-0.325495 0.183332,-0.659113 -0.204839,-0.204838 -0.373937,-0.557076 -0.375773,-0.78275 -0.0018,-0.225673 -0.06967,-0.657813 -0.150731,-0.960312 -0.334459,-1.24803 1.83422,-0.08394 2.344628,1.258532 0.292201,0.768548 0.04817,1.736501 -0.588615,2.334728 -0.69924,0.656901 -3.068602,1.008682 -3.068602,0.455595 z m 19.18877,0.115028 c -1.27786,-0.309132 -2.133762,-1.967639 -1.573777,-3.049553 0.390038,-0.753568 1.469845,-1.644631 2.006209,-1.655536 0.347478,-0.0071 0.40193,0.123273 0.277169,0.663428 -0.0854,0.36972 -0.30749,0.991617 -0.493545,1.381992 -0.420552,0.882403 -0.420731,0.879105 0.04719,0.879105 0.434116,0 1.81452,1.287422 1.81452,1.692298 0,0.262891 -1.15338,0.311887 -2.077765,0.08827 z m -22.329861,-3.430554 -0.892217,-0.916661 1.052228,-0.07582 c 1.263407,-0.09103 2.577267,0.578223 2.692528,1.371523 0.0698,0.480392 -0.03038,0.537618 -0.941105,0.537618 -0.856184,0 -1.161936,-0.146629 -1.911434,-0.91666 z m 24.655811,0.488886 c 0.002,-0.235276 0.08456,-0.54402 0.183332,-0.686095 0.323987,-0.466023 1.687304,-0.87644 2.648097,-0.797192 l 0.942518,0.07774 -0.91922,0.916661 c -0.752799,0.750702 -1.094772,0.916661 -1.888845,0.916661 -0.761916,0 -0.968822,-0.09164 -0.965882,-0.427775 z M 30.811132,62.85369 c -1.922776,-0.447303 -3.418339,-0.96332 -6.17567,-2.130801 -6.900833,-2.921883 -11.5269,-6.930566 -13.554797,-11.745805 -0.524817,-1.24618 -0.550648,-1.646878 -0.630771,-9.784885 l -0.08354,-8.485491 0.610364,-0.153192 c 0.3357,-0.08425 0.836787,-0.08133 1.113526,0.0065 0.492391,0.156279 0.504542,0.328113 0.567638,8.027579 l 0.06448,7.867882 21.324257,0.06245 21.324258,0.06245 0.0645,-7.884626 0.0645,-7.884626 h 1.099993 1.099993 v 8.066616 c 0,9.050001 -0.06606,9.506036 -1.780808,12.293829 -1.18853,1.93228 -2.389212,3.260695 -4.399863,4.867934 -3.107189,2.483773 -7.26369,4.637254 -11.76745,6.096708 -3.096879,1.003553 -6.527457,1.278852 -8.9406,0.717471 z"
           style="fill:#99814a;fill-opacity:1;stroke-width:0.244443"
           id="path2964" />
      </g>
    </g>
  </g>
</svg>
