<?xml version="1.0" encoding="UTF-8" standalone="no"?>
<svg
   xmlns:dc="http://purl.org/dc/elements/1.1/"
   xmlns:cc="http://creativecommons.org/ns#"
   xmlns:rdf="http://www.w3.org/1999/02/22-rdf-syntax-ns#"
   xmlns:svg="http://www.w3.org/2000/svg"
   xmlns="http://www.w3.org/2000/svg"
   height="256"
   width="256"
   class="style-svg replaced-svg"
   xml:space="preserve"
   viewBox="0 0 256 256"
   y="0px"
   x="0px"
   id="Capa_1"
   version="1.1"><metadata
   id="metadata119"><rdf:RDF><cc:Work
       rdf:about=""><dc:format>image/svg+xml</dc:format><dc:type
         rdf:resource="http://purl.org/dc/dcmitype/StillImage" /><dc:title></dc:title></cc:Work></rdf:RDF></metadata><defs
   id="defs117" />
<style
   id="style2"
   type="text/css">
	.st0{fill:#99814A;}
	.st1{fill:#99814A;stroke:#FFFFFF;stroke-width:0.1547;stroke-miterlimit:10;}
	.st2{fill:#4E4D4D;}
	.st3{fill:none;}
</style>
















<g
   transform="matrix(4.6444122,0,0,4.6444122,-16.441219,-272.82835)"
   id="g176"><path
     class="st0"
     d="m 39.5,74.8 c -0.3,0 -0.4,0.1 -0.4,0.4 0,0.1 0.1,0.3 0.4,0.3 H 40 l -1.3,1.3 c -0.4,-0.4 -1,-0.5 -1.5,-0.5 -1.4,0 -2.6,1.1 -2.6,2.6 0,1.3 0.9,2.3 2.2,2.6 0.3,0 0.6,0 0.6,0 1.3,-0.1 2.2,-1.3 2.2,-2.6 0,-0.5 -0.1,-1 -0.5,-1.5 L 40.5,76 v 0.3 c 0,0.1 0.1,0.3 0.3,0.4 0.3,0 0.4,-0.1 0.4,-0.4 v -1 C 41.2,75.2 41.1,75 40.9,75 Z m -2.3,5.8 c -1.1,0.1 -2.2,-0.9 -2,-2 0.1,-0.9 0.8,-1.6 1.6,-1.6 1.1,-0.1 2.2,0.9 2,2 0,0.7 -0.6,1.5 -1.6,1.6 z"
     id="path4" /><path
     class="st1"
     d="m 37.4,73 c -0.4,0 -0.8,0.4 -0.8,0.8 v 0.1 c -0.6,0.4 -1.3,0.5 -2.2,0.6 -1,0 -1.8,-0.4 -2.6,-0.9 C 31.3,73.2 30.7,73 29.9,72.7 V 74 c 0.6,0.3 1.3,0.6 1.9,0.9 0.9,0.5 1.8,0.6 2.6,0.5 0.9,-0.1 1.6,-0.5 2.6,-1 0.1,0 0.3,0.1 0.4,0.1 0.4,0 0.8,-0.4 0.8,-0.8 0,-0.5 -0.5,-0.7 -0.8,-0.7 z"
     id="path6" /><path
     class="st0"
     d="m 29,62.9 0.3,5.7 H 28.2 27 l 0.3,-5.9 c -0.3,-0.2 -0.4,-0.4 -0.4,-0.8 0,-0.6 0.5,-1.3 1.3,-1.3 0.8,0 1.3,0.5 1.3,1.3 -0.2,0.5 -0.3,0.9 -0.5,1 z"
     id="path8" /><path
     class="st2"
     d="M 26.9,87.4"
     id="path10" /><path
     class="st2"
     d="M 29.2,87.4"
     id="path12" /><path
     class="st3"
     d="m 19.4,81.4 c 0,0 -0.1,0 -0.1,0.1 v 0.1 z"
     id="path14" /><path
     class="st0"
     d="M 26.1,70.9 25.3,71 23.8,70.9 v 0.5 h -0.6 l -0.8,-0.3 -1.1,0.1 -0.9,-0.3 -0.4,-0.1 -1,-0.9 -0.9,-0.6 -1.3,-0.2 -1.4,-0.5 -0.1,0.9 0.1,1 v 2.2 l 0.6,0.5 0.3,0.5 0.5,0.8 0.1,0.6 v 0.4 l -0.4,0.1 -0.6,-0.5 v 0.6 l 0.3,0.4 0.5,0.5 c 0.5,-0.3 1,-0.5 1.6,-0.4 h 0.1 V 75.9 L 18.1,75.6 V 74.8 L 18,74.6 v -1.3 l -0.4,-0.4 -0.2,-0.4 -0.3,-0.3 0.1,-0.8 0.1,-0.4 h 0.2 l 0.3,-0.1 0.1,0.1 h 0.3 l 0.3,0.1 0.1,0.3 v 0.3 l 0.1,0.8 v 0.3 c 0.1,-0.1 0.3,-0.1 0.4,-0.1 0.4,0 0.8,0.4 0.8,0.8 v 0.1 c 0.6,0.3 1.3,0.5 2,0.5 1,0.1 1.7,-0.6 2.5,-1.1 0.5,-0.4 0.7,-0.4 1.3,-0.6 L 26.2,72 26,71.5 Z"
     id="path16" /><path
     class="st0"
     d="m 17.7,79.1 v 1.4 l 0.5,0.3 0.4,0.5 v 0 c 0.3,0 0.4,-0.1 0.6,-0.3 l 0.1,-0.4 V 80.3 L 19,80.1 v -0.9 l 0.1,-1 -0.1,-0.1 -0.3,-0.3 c -0.1,0 -0.3,0 -0.4,-0.1 -0.5,0 -0.9,0.1 -1.3,0.4 l 0.1,0.4 z"
     id="path18" /><path
     class="st0"
     d="m 19.4,81.8 v 0 c -0.3,0 -0.5,0 -0.8,0.1 v 0.2 l 0.3,0.6 0.1,0.5 0.5,0.3 0.6,-0.3 -0.3,-0.5 v -0.6 l -0.2,-0.6 c -0.1,0 -0.1,0.1 -0.3,0.1 z"
     id="path20" /><path
     class="st0"
     d="M 20,77.4 C 19.6,77 19.1,76.8 18.6,76.6 h -0.1 c -0.6,0 -1.1,0.1 -1.6,0.4 -0.6,0.4 -1,1 -1.1,1.9 -0.1,1.3 0.8,2.6 2,2.8 l -0.1,1.5 H 17 c -0.1,0 -0.4,0.1 -0.4,0.4 0,0.2 0.1,0.4 0.4,0.4 h 0.6 v 0.5 c 0,0.1 0.1,0.4 0.4,0.4 0.1,0 0.4,-0.1 0.4,-0.4 V 84 h 0.5 c 0.1,0 0.4,-0.1 0.4,-0.4 0,-0.3 -0.1,-0.4 -0.4,-0.4 h -0.6 l 0.1,-1.5 h 0.1 0.1 c 0.3,0 0.4,-0.1 0.6,-0.1 v 0 L 19,81.1 v 0 c -0.2,0.2 -0.4,0.2 -0.6,0.2 v 0 c -0.1,0 -0.3,0 -0.4,0 -1,-0.1 -1.8,-1 -1.8,-2 0,-0.5 0.4,-1 0.8,-1.4 0.4,-0.3 0.8,-0.4 1.3,-0.4 0.1,0 0.3,0 0.4,0.1 0.9,0.3 1.5,1.1 1.4,2 0,0.6 -0.5,1.1 -1,1.5 v 0 l 0.1,0.4 0.1,0.1 h 0.1 v 0 c 0.1,0 0.1,-0.1 0.3,-0.1 v 0 c 0.6,-0.4 1.1,-1.1 1.1,-1.9 0,-0.9 -0.3,-1.8 -0.8,-2.2 z"
     id="path22" /><path
     class="st0"
     d="m 25.8,74.2 c -0.8,0.3 -1,0.5 -1.4,0.7 -0.8,0.4 -1.7,0.6 -2.3,0.5 -0.8,0 -1.6,-0.4 -2.5,-0.9 -0.1,0.1 -0.3,0.1 -0.3,0.1 -0.1,0 -0.1,0 -0.3,0 l 0.1,0.3 v 0.3 l 0.3,0.8 0.6,0.6 0.1,0.3 0.3,0.6 0.3,0.8 0.3,0.4 0.1,0.3 v 0.5 l 0.3,0.4 v 0.6 l 0.3,0.4 0.3,0.6 v 0.3 l 0.3,0.8 0.3,0.4 0.3,0.5 0.3,0.4 0.3,0.5 0.1,0.5 0.1,0.3 -0.1,0.6 v 0.9 l -0.3,0.5 -0.3,0.3 1.1,1.5 0.6,0.5 0.8,0.4 0.8,0.5 0.5,0.1 V 87.7 L 26.4,74.1"
     id="path24" /><polygon
     class="st0"
     points="41.9,87.2 41.9,87.6 41.3,88.2 41.3,88.7 40.6,89 40.6,89.4 40.1,89.5 39.3,89.3 38.8,89.5 37.5,89.9 37.2,90 36.7,89.7 36.1,89.4 35.3,89.4 35,89.3 35,88.7 34.9,88 34.6,87.7 34.3,87.2 34.3,87 34.3,86.6 34,85.9 33.8,84.8 33.8,84.4 33.8,84.3 34,83.6 34,82.6 34,82.1 34.3,81.8 34.3,81.4 34.6,80.8 35,79.6 34.6,79.6 33.8,79.6 33.4,79.3 33.2,78.7 33,77.8 32.7,77 32.5,76 31.5,74.9 30.6,74.6 30,74.8 29.8,74.9 29.5,87.4 29.5,91.5 29.6,91.5 30.5,92.2 31.1,92.1 31.7,92.6 32.2,93 33,93.3 33.4,93.5 34,93.8 34.9,93.6 35.9,93.3 36.5,93.1 36.5,93.3 36.9,93.3 37.8,93.5 38.4,94.1 39,94.8 39.4,95.4 39.4,94.3 40.1,93.6 41.3,93.3 41.5,93 41.5,92.8 41.8,92.6 41.3,92.3 41.3,92.2 41.3,92.1 40.9,91.7 40.9,91.5 41.3,91.2 41.3,91 43,91 43.4,90.5 43.4,90.4 43.7,90.4 43.8,90.5 44.4,89.7 44.6,89.5 44.6,89.7 44.6,90 45.3,90 45.7,89.2 45.7,88.2 45.6,88.2 45.6,87.6 46.2,87 46.3,86.4 46.3,85.7 45.7,85.7 45.6,85.9 44.9,85.9 42.8,86.2 42.5,86.4 "
     id="polygon26" /><polygon
     class="st0"
     points="28.1,74.9 28,74.6 28.1,80.1 28.2,74.9 "
     id="polygon28" /><path
     class="st0"
     d="m 26.3,72.6 c -0.6,0.3 -1.3,0.5 -1.8,0.9 -0.8,0.5 -1.5,1 -2.6,0.9 -0.8,0 -1.4,-0.3 -2,-0.5 v -0.1 c 0,-0.4 -0.4,-0.8 -0.8,-0.8 -0.1,0 -0.3,0 -0.4,0.1 -0.3,0.1 -0.4,0.4 -0.4,0.6 0,0.3 0.3,0.6 0.5,0.8 0.1,0 0.1,0 0.3,0 0.1,0 0.3,0 0.4,-0.1 0.9,0.5 1.6,0.9 2.6,0.9 0.6,0.1 1.6,-0.1 2.4,-0.5 0.5,-0.3 1.1,-0.6 1.9,-0.9 z"
     id="path30" /><polygon
     class="st0"
     points="26.5,71.2 26.5,71.7 26.9,87.4 26.9,90.2 26.9,93.3 27,96.5 28.1,99.2 29.1,96.5 29.2,93.3 29.2,91.5 29.2,87.4 29.5,74.9 29.6,71.2 28.3,71.3 28.2,74.9 28.1,80.1 28,74.6 27.8,71.3 "
     id="polygon32" /><path
     class="st0"
     d="m 33.6,70.3 c 0,0.5 -0.4,0.8 -0.9,0.8 -0.3,0 -0.5,-0.1 -0.6,-0.4 h -3.9 l -3.9,-0.4 c -0.1,0.3 -0.4,0.4 -0.8,0.3 -0.5,0 -0.8,-0.4 -0.8,-0.9 0,-0.5 0.4,-0.8 0.9,-0.8 0.3,0 0.5,0.1 0.6,0.4 h 3.9 l 3.9,0.4 c 0.1,-0.3 0.4,-0.4 0.6,-0.3 0.5,0 1,0.4 1,0.9 z"
     id="path34" /><g
     id="g112">
	<g
   id="g72">
		<path
   class="st0"
   d="m 36.2,110 v 0 0 c -0.1,-0.1 -0.2,-0.3 -0.3,-0.4 -0.4,-0.8 -0.5,-1.8 -0.2,-2.7 0.4,-1.1 1.4,-1.9 2.5,-2 0.7,0.9 0.9,2.1 0.5,3.2 -0.2,0.5 -0.5,1.1 -1,1.3 -0.3,0.2 -1.5,0.6 -1.5,0.6 z"
   id="path36" />
		<path
   class="st0"
   d="m 38.6,110.1 c 0.1,0 0.1,0 0,0 0.4,0.1 0.7,0.2 1,0.4 1,0.6 1.5,1.7 1.5,2.9 -1,0.5 -2.2,0.5 -3.2,-0.1 -0.9,-0.6 -1.4,-1.6 -1.5,-2.6 0,-0.1 0.1,-0.2 0.2,-0.2 0.6,-0.3 1.5,-0.5 2,-0.4 z"
   id="path38" />
		<path
   class="st0"
   d="m 42.2,108.3 v 0 c 0.5,0 0.9,0 1.3,0.1 1.2,0.3 2,1.2 2.3,2.1 0,0.1 0,0.2 -0.1,0.2 -0.9,0.6 -2.1,0.9 -3.3,0.6 -1.1,-0.3 -1.9,-1 -2.2,-1.9 0,-0.1 0,-0.2 0.1,-0.3 0.6,-0.4 1.2,-0.7 1.9,-0.8 z"
   id="path40" />
		<path
   class="st0"
   d="m 46.6,105.7 c 0.3,-0.1 0.6,-0.1 0.9,0 1.2,0.1 2.1,0.7 2.6,1.6 -0.6,0.8 -1.7,1.2 -2.9,1.1 -1.1,-0.1 -2.5,-1.1 -2.5,-1.4 0,-0.6 1.2,-1.1 1.9,-1.3 z"
   id="path42" />
		<path
   class="st0"
   d="m 50,102.3 c 0.3,-0.1 0.5,-0.2 0.8,-0.2 1.1,-0.1 2.2,0.3 2.8,1.1 -0.4,0.9 -1.3,1.5 -2.4,1.7 -1,0.1 -2.6,-0.5 -2.6,-0.9 0,-0.6 0.8,-1.5 1.4,-1.7 z"
   id="path44" />
		<path
   class="st0"
   d="m 52.4,98.4 c 0.2,-0.3 0.6,-0.4 1,-0.5 1.1,-0.4 2.3,-0.1 3.1,0.6 -0.2,1 -1,1.9 -2.1,2.2 -1,0.3 -2.6,0 -2.9,-0.4 -0.2,-0.4 0.6,-1.5 0.9,-1.9 z"
   id="path46" />
		<path
   class="st0"
   d="m 54.2,94.2 c 0.2,-0.3 0.5,-0.5 0.8,-0.7 1,-0.5 2.1,-0.5 3.1,-0.1 0,0.9 -0.5,1.9 -1.5,2.4 -0.9,0.5 -2.6,0.5 -2.9,0.2 -0.3,-0.3 0.2,-1.4 0.5,-1.8 z"
   id="path48" />
		<path
   class="st0"
   d="m 55.2,89.3 c 0.2,-0.4 0.3,-0.6 0.6,-0.9 0.8,-0.8 1.9,-1 2.8,-0.7 0.2,1.1 -0.1,2.3 -0.9,3.1 -0.7,0.7 -2.1,1.1 -2.5,0.8 -0.4,-0.3 -0.2,-1.8 0,-2.3 z"
   id="path50" />
		<path
   class="st0"
   d="m 53.4,91.1 c -0.5,0.1 -1.9,-0.5 -2.5,-1.2 -0.7,-0.8 -0.8,-1.8 -0.3,-2.6 1.1,0 2.1,0.4 2.8,1.2 0.2,0.2 0.3,0.5 0.4,0.8 0.1,0.3 0.1,1.7 -0.4,1.8 z"
   id="path52" />
		<path
   class="st0"
   d="m 52.5,95.8 c -0.3,0.3 -1.6,-0.5 -2,-1.3 -0.5,-0.9 -0.6,-2.1 -0.1,-3 0.9,0 1.8,0.4 2.4,1.4 0.1,0.2 0.2,0.3 0.2,0.5 0.1,0.7 -0.3,2.1 -0.5,2.4 z"
   id="path54" />
		<path
   class="st0"
   d="m 50.7,99.4 c -0.3,0.2 -1.6,-0.8 -1.9,-1.6 -0.4,-0.9 -0.2,-1.9 0.4,-2.7 0.9,0.1 1.8,0.7 2.1,1.6 0.1,0.2 0.1,0.4 0.2,0.5 0,0.8 -0.4,1.9 -0.8,2.2 z"
   id="path56" />
		<path
   class="st0"
   d="m 47.7,102.9 c -0.3,0.2 -1.2,-1.1 -1.4,-1.9 -0.2,-1 0.2,-2 1,-2.6 0.9,0.3 1.6,1.1 1.8,2.1 0,0.2 0.1,0.4 0,0.5 -0.3,0.9 -0.9,1.6 -1.4,1.9 z"
   id="path58" />
		<path
   class="st0"
   d="m 44.1,106.2 c -0.3,0.1 -1,-1.4 -0.9,-2.4 0.1,-1 0.7,-1.8 1.6,-2.2 0.8,0.6 1.2,1.5 1.1,2.5 0,0.3 0,0.7 -0.2,0.9 -0.6,0.5 -1.1,0.9 -1.6,1.2 z"
   id="path60" />
		<path
   class="st0"
   d="m 40.4,108 c -0.6,-0.7 -1,-1.7 -0.8,-2.7 0.2,-1.1 1,-2 2,-2.3 0.8,0.7 1.2,1.8 1,2.9 -0.1,0.6 -0.3,1.2 -0.7,1.5 -0.3,0.3 -1.5,0.6 -1.5,0.6 z"
   id="path62" />
		<path
   class="st0"
   d="m 55.2,84.4 c 0.1,-0.4 0.3,-0.6 0.5,-0.8 0.7,-0.7 1.6,-0.9 2.4,-0.6 0.2,1 -0.1,2.1 -0.8,2.9 -0.6,0.7 -1.8,1 -2.1,0.7 -0.4,-0.3 -0.2,-1.7 0,-2.2 z"
   id="path64" />
		<path
   class="st0"
   d="m 54.1,87 c -0.4,0.3 -1.8,0 -2.5,-0.7 -0.8,-0.7 -1,-1.7 -0.8,-2.7 0.9,-0.3 2,-0.1 2.7,0.6 0.2,0.2 0.4,0.5 0.6,0.7 0.2,0.5 0.4,1.9 0,2.1 z"
   id="path66" />
		<path
   class="st0"
   d="m 54.3,80.1 c 0,-0.4 0.1,-0.7 0.2,-1 0.4,-1 1.2,-1.5 2,-1.5 0.5,0.9 0.7,2.1 0.3,3.1 -0.3,0.9 -1.3,1.6 -1.7,1.4 -0.4,-0.1 -0.8,-1.5 -0.8,-2 z"
   id="path68" />
		<path
   class="st0"
   d="m 52.9,82.8 c -0.4,0.2 -1.7,0 -2.3,-0.6 -0.7,-0.6 -1,-1.4 -0.8,-2.2 0.9,-0.2 1.8,-0.1 2.6,0.5 0.2,0.2 0.3,0.4 0.5,0.6 0.2,0.3 0.4,1.5 0,1.7 z"
   id="path70" />
	</g>
	<g
   id="g110">
		<path
   class="st0"
   d="m 26,110.2 v 0 c 0,-0.1 0,-0.1 0,0 0.1,-0.1 0.2,-0.3 0.3,-0.4 0.4,-0.8 0.5,-1.8 0.2,-2.7 -0.4,-1.1 -1.4,-1.9 -2.5,-2 -0.7,0.9 -0.9,2.1 -0.5,3.2 0.2,0.5 0.5,1.1 1,1.3 0.3,0.1 1.5,0.6 1.5,0.6 z"
   id="path74" />
		<path
   class="st0"
   d="m 23.6,110.2 c -0.1,0 -0.1,0 0,0 -0.4,0.1 -0.7,0.2 -1,0.4 -1,0.6 -1.5,1.7 -1.5,2.9 1,0.5 2.2,0.5 3.2,-0.1 0.9,-0.6 1.4,-1.6 1.5,-2.6 0,-0.1 -0.1,-0.2 -0.2,-0.2 -0.6,-0.3 -1.5,-0.5 -2,-0.4 z"
   id="path76" />
		<path
   class="st0"
   d="m 20,108.4 h -0.1 c -0.4,0 -0.8,0 -1.2,0.1 -1.2,0.3 -2,1.2 -2.3,2.1 0,0.1 0,0.2 0.1,0.2 0.9,0.6 2.1,0.9 3.3,0.6 1.1,-0.3 1.9,-1 2.2,-1.9 0,-0.1 0,-0.2 -0.1,-0.3 -0.6,-0.4 -1.2,-0.7 -1.9,-0.8 z"
   id="path78" />
		<path
   class="st0"
   d="m 15.6,105.8 c -0.3,-0.1 -0.6,-0.1 -0.9,0 -1.2,0.1 -2.1,0.7 -2.6,1.6 0.6,0.8 1.7,1.2 2.9,1.1 1.1,-0.1 2.5,-1.1 2.5,-1.4 0,-0.5 -1.1,-1 -1.9,-1.3 z"
   id="path80" />
		<path
   class="st0"
   d="m 12.2,102.5 c -0.3,-0.1 -0.5,-0.2 -0.8,-0.2 -1.1,-0.1 -2.2,0.3 -2.8,1.1 0.4,0.9 1.3,1.5 2.4,1.7 1,0.1 2.6,-0.5 2.6,-0.9 0,-0.6 -0.8,-1.5 -1.4,-1.7 z"
   id="path82" />
		<path
   class="st0"
   d="M 9.8,98.6 C 9.6,98.3 9.2,98.2 8.8,98.1 7.7,97.7 6.5,98 5.7,98.7 c 0.2,1 1,1.9 2.1,2.2 1,0.3 2.6,0 2.9,-0.4 0.2,-0.4 -0.5,-1.5 -0.9,-1.9 z"
   id="path84" />
		<path
   class="st0"
   d="M 8,94.4 C 7.8,94.1 7.5,93.9 7.2,93.7 6.2,93.2 5.1,93.2 4.1,93.6 c 0,0.9 0.5,1.9 1.5,2.4 0.9,0.5 2.5,0.5 2.8,0.2 C 8.8,95.9 8.3,94.8 8,94.4 Z"
   id="path86" />
		<path
   class="st0"
   d="M 7,89.5 C 6.8,89.1 6.7,88.9 6.4,88.6 5.6,87.8 4.5,87.6 3.6,87.9 3.4,89 3.7,90.2 4.5,91 5.2,91.7 6.6,92.1 7,91.8 7.4,91.5 7.3,90 7,89.5 Z"
   id="path88" />
		<path
   class="st0"
   d="m 8.9,91.3 c 0.5,0.1 1.9,-0.5 2.5,-1.2 0.7,-0.8 0.8,-1.8 0.3,-2.6 -1.1,0 -2.1,0.4 -2.8,1.2 -0.2,0.2 -0.3,0.5 -0.4,0.8 -0.2,0.3 -0.2,1.7 0.4,1.8 z"
   id="path90" />
		<path
   class="st0"
   d="m 9.7,95.9 c 0.3,0.3 1.6,-0.5 2,-1.3 0.5,-0.9 0.6,-2.1 0.1,-3 -0.9,0 -1.8,0.4 -2.4,1.4 -0.1,0.2 -0.2,0.3 -0.2,0.5 -0.1,0.8 0.3,2.2 0.5,2.4 z"
   id="path92" />
		<path
   class="st0"
   d="m 11.5,99.5 c 0.3,0.2 1.6,-0.8 1.9,-1.6 0.4,-0.9 0.2,-1.9 -0.4,-2.7 -0.9,0.1 -1.8,0.7 -2.1,1.6 -0.1,0.2 -0.1,0.4 -0.2,0.5 0,0.8 0.4,2 0.8,2.2 z"
   id="path94" />
		<path
   class="st0"
   d="m 14.5,103 c 0.3,0.2 1.2,-1.1 1.4,-1.9 0.2,-1 -0.2,-2 -1,-2.6 -0.9,0.3 -1.6,1.1 -1.8,2.1 0,0.2 -0.1,0.4 0,0.5 0.3,0.9 0.9,1.7 1.4,1.9 z"
   id="path96" />
		<path
   class="st0"
   d="m 18.2,106.3 c 0.3,0.1 1,-1.4 0.9,-2.4 -0.1,-1 -0.7,-1.8 -1.6,-2.2 -0.8,0.6 -1.2,1.5 -1.1,2.5 0,0.3 0,0.7 0.2,0.9 0.5,0.5 1,1 1.6,1.2 z"
   id="path98" />
		<path
   class="st0"
   d="m 21.8,108.2 c 0.6,-0.7 1,-1.7 0.8,-2.7 -0.2,-1.1 -1,-2 -2,-2.3 -0.8,0.7 -1.2,1.8 -1,2.9 0.1,0.6 0.3,1.2 0.7,1.5 0.3,0.2 1.5,0.6 1.5,0.6 z"
   id="path100" />
		<path
   class="st0"
   d="M 7.1,84.6 C 7,84.2 6.8,84 6.6,83.8 5.9,83.1 5,82.9 4.2,83.2 c -0.2,1 0.1,2.1 0.8,2.9 0.6,0.7 1.8,1 2.1,0.7 0.3,-0.4 0.2,-1.7 0,-2.2 z"
   id="path102" />
		<path
   class="st0"
   d="m 8.1,87.2 c 0.4,0.3 1.8,0 2.5,-0.7 0.8,-0.7 1,-1.7 0.8,-2.7 -0.9,-0.3 -2,-0.1 -2.7,0.6 -0.2,0.2 -0.4,0.5 -0.6,0.7 -0.2,0.4 -0.4,1.8 0,2.1 z"
   id="path104" />
		<path
   class="st0"
   d="m 7.9,80.2 c 0,-0.4 -0.1,-0.7 -0.2,-1 -0.4,-1 -1.2,-1.5 -2,-1.5 -0.5,0.9 -0.7,2.1 -0.3,3.1 0.3,0.9 1.3,1.6 1.7,1.4 0.4,-0.1 0.8,-1.4 0.8,-2 z"
   id="path106" />
		<path
   class="st0"
   d="m 9.3,82.9 c 0.4,0.2 1.7,0 2.3,-0.6 0.7,-0.6 1,-1.4 0.8,-2.2 -0.9,-0.2 -1.8,-0.1 -2.6,0.5 -0.2,0.2 -0.3,0.4 -0.5,0.6 -0.2,0.3 -0.4,1.5 0,1.7 z"
   id="path108" />
	</g>
</g></g>
</svg>
